<?xml version="1.0" encoding="UTF-8"?>
<svg id="Calque_1" data-name="Calque 1" xmlns="http://www.w3.org/2000/svg" viewBox="0 0 475.68 622.92">
  <defs>
    <style>
      .cls-1 {
        fill: #fff;
        stroke-width: 0px;
      }
    </style>
  </defs>
  <g>
    <path id="T" class="cls-1" d="m475.68,368.61c-1.61,2.65-3.26,5.27-4.8,7.96-1.12,1.97-2.87,3.18-4.72,4.29-.51.3-1.26.42-1.85.32-3.34-.55-6.5.39-9.78,1.06-.09.38-.17.76-.26,1.14-.53,2.22-1.98,2.8-3.85,1.53-.13-.09-.26-.19-.38-.29q-2.38-1.98-4.99-.63c-.68-.45-1.39-.96-2.14-1.39-2.56-1.49-5.24-1.98-8.03-.75-2.61,1.15-4.98.94-7.07-1.08-.95-.92-2.1-.64-3.18-.53-3.37.34-6.71.24-10-.62-1-.26-1.97-.61-2.95-.91-.75.54-1.45,1.05-2.22,1.61-.53-.28-1.03-.51-1.49-.8-1.57-1-3.04-1.57-4.77-.09-.61.52-1.82.45-2.75.44-1.91-.03-3.83-.3-5.74-.28-3.37.03-6.68-.2-10.01-.8-1.55-.28-3.25.27-5.02.46.09-.66.21-1.55.34-2.43-.09-.03-.18-.05-.27-.08-.76,1.8-1.52,3.59-2.27,5.39-.06.15-.17.35-.11.45,1.39,2.64-.92,4.67-1.22,7.05-.3,2.4-1.46,4.69-2.23,7.01-1.03.12-1.8.21-2.53.29-.12,1.63-.03,3.24-.4,4.72-.37,1.44-1.25,2.75-1.84,4.15-.27.65-.59,1.4-.52,2.06.2,1.75-.39,3.3-.91,4.89-3.14,9.65-6.27,19.29-9.38,28.95-.46,1.44-.83,2.91-1.31,4.61-.56-.69-.97-1.21-1.55-1.93.18,1.98.49,3.62.43,5.24-.06,1.57-.5,3.13-.68,4.12-.9.67-1.46.95-1.84,1.38-.73.83-1.24,1.89-2.07,2.59-1.87,1.59-2.59,3.53-2.47,5.94.07,1.34,0,2.73-.28,4.05-.21,1.02-.83,1.97-1.36,3.16-.84-.66-1.36-1.07-2.05-1.61-.69,1.44-1.31,2.72-1.98,4.11.58.28,1.05.5,1.77.84-.74,2.33-1.1,4.92-2.37,6.91-.83,1.31-1.22,2.51-1.35,4.25-.55-.63-.88-1.01-1.5-1.72-.19,1.81-.35,3.33-.53,4.99-.32-.22-.52-.32-.67-.47-.16-.16-.28-.37-.38-.52-.76.85-1.3,1.82-2.12,2.26-.67.36-1.68.07-2.5.07-.37.67-.61,1.61-1.22,2.08-.55.42-1.49.41-2.27.46-2.37.15-2.6.39-3.2,2.7-.34,1.3-.93,2.54-1.38,3.82-.98,2.78-1.95,5.57-2.99,8.52-.93-.16-1.84-.31-2.99-.5-.71,1.23-1.46,2.51-2.31,3.98.8.12,1.38.21,2.02.3-.05.31,0,.62-.14.74-.65.59-1.35,1.12-2.02,1.69-1.58,1.33-2.83,2.85-2.71,5.08.07,1.29-.8,1.88-1.81,2.24-1.43.51-2.9.89-4.35,1.33-2.4.74-4.56,1.7-6.02,4.02-.66,1.05-2.08,1.69-3.24,2.35-1.54.88-3.17,1.58-3.77,3.46-.05.15-.13.38-.23.4-2.16.51-3.01,2.48-4.42,3.84-.43.42-1.1.59-1.82.96.09.69.2,1.45.32,2.34-1.7.48-3.39.94-5.06,1.44-1.7.51-3.06,1.16-2.92,3.43.06.95-.84,1.97-1.44,3.23.43.81,1.01,1.91,1.76,3.33-6.08-1.1-11.79-2.65-17.8-2.66-.1,1.28-.18,2.36-.29,3.8-.87-.96-1.49-1.64-2.23-2.45-.31.55-.58,1.04-.92,1.65-1.67-1.04-.26-2.22-.43-3.54-.92-.22-1.96-.64-3.01-.68-1.91-.06-2.92-1-3.33-2.76-.09-.38-.27-.73-.45-1.21.53-.4,1.01-.76,1.56-1.17-.16-.12-.25-.25-.36-.27-1.01-.19-1.27-.79-1.07-1.75.22-1.08.34-2.17.53-3.43,2.32-.82,1.45-3.55,2.61-5.21q2.34,1.01,3.97-.79c.66.21,1.34.42,1.86.59.78-.72,1.44-1.41,2.17-2.01,1.53-1.25,3.15-2.41,4.64-3.7.9-.78,1.88-1.24,3.04-1.19,3.09.13,4.95-1.45,5.97-4.21.8-2.16,2.17-3.8,3.92-5.32,1.4-1.22,2.37-2.98,3.4-4.58,1.25-1.94,2.63-3.65,5.22-3.98-.31-.59-.55-1.05-.79-1.5,2.06-2.16,3.63-4.61,5.18-7.05,1.18-1.88,2.56-3.25,5.12-2.93-.14-2.92,1.65-4.61,3.41-6.35.3-.3.57-.78.6-1.19.12-1.91,1.32-3.06,2.8-3.93,1.37-.81,2.85-1.43,4.41-2.2-.78-.89-.62-1.77-.07-2.77.84-1.54,1.46-3.2,2.25-4.76.54-1.06,1.07-2.2,1.89-3.04,1.69-1.74,2.71-3.67,2.87-6.13.12-1.79,1.17-3.1,2.86-3.85.42-.18.8-.43,1.2-.65q-1.35-2.65.38-5.23c.4-.59.71-1.42,1.28-1.7,1.9-.93,1.93-2.3,1.31-3.98-.1-.28-.08-.6-.15-1.12.44.15.71.25.98.32.74.19,1.63.89,2.17.02.35-.57.2-1.49.17-2.25-.01-.45-.22-.88-.37-1.42,1.17-.12,2.21-.24,3.25-.35.02-.2.04-.41.05-.61-.79-.2-1.58-.43-2.38-.59-.9-.18-1.3-.76-.97-1.55,1.27-3.01,2.57-6.01,3.99-8.95.4-.82,1.26-1.42,2.06-2.3-1.04-2.49.82-4.31,1.9-6.36,1.1-2.08,2.56-3.86,5.13-5.01-.58-.23-.88-.34-1.4-.55.67-1.92,1.04-3.99,3.8-4.32v-5.54c.65-.22,1.37-.46,1.87-.62.29-.78.52-1.43.82-2.23-.43-.33-1.04-.8-1.87-1.44.61-1.47,1.11-2.98,1.84-4.37,1.45-2.76,3.03-5.43,3.83-8.5.27-1.05,1-1.99,1.57-2.95,1.41-2.38,1.49-2.76.9-5.48.12-.16.24-.38.42-.51,2.64-2,2.58-2.25.23-4.73-1.41-1.49-2.68-3.16-3.73-4.92-1.58-2.66-.01-5.12,3.18-6.59-.97-.78-1.88-1.51-2.84-2.28.08-1.91,1.16-3.07,2.81-3.78.95-.41,1.96-.68,2.93-1.06,2.02-.79,3.17-2.3,3.71-4.39.6-2.31,1.26-4.61,2.02-6.87.56-1.65.77-3.26.2-4.92-.57-1.65-1.16-3.29-1.78-5.06-.82.24-1.45.43-2.08.61l-.18-.28c.41-.45.81-.91,1.24-1.33,2.51-2.41,3.74-5.29,3.57-8.81-.04-.81.25-1.71.61-2.46.58-1.2,1.36-2.32,2.1-3.55-1.13-.56-2.05-1.01-2.94-1.46-.12-2.36-.28-4.67-.32-6.98-.02-1.03-.08-2.2.36-3.06.71-1.37.45-2.6.1-3.91-.45-1.68-.88-3.36-.99-5.23.35.31.7.62,1.16,1.03.74-1.11.64-2.29.3-3.39-1.19-3.93-.83-7.93-.51-11.91.11-1.3.77-2.58,1.35-3.79.77-1.62,1.17-3.17-.3-4.81,2.36-1.93,1.97-4.34,1.32-6.81-.52-2-1.28-3.96-.89-6.11.07-.37-.23-.93-.54-1.23-.95-.94-2.11-1.69-2.95-2.71-.73-.88-1.36-1.98-1.62-3.08-.31-1.3-.29-2.7-.22-4.05.19-4.07-.66-7.92-2.31-11.6-.26-.57-.98-.93-1.59-1.48.67-.55,1.28-.93,1.72-1.46.44-.53.89-1.16,1.04-1.81.3-1.29-.29-1.9-1.67-1.9-.38,0-.76.09-1.25.16-.29-.91-.56-1.74-.86-2.71.53-.28,1.05-.55,2.02-1.07-1.83-.14-2.28-1.13-2.73-2.27-.97-2.45-2.11-4.83-3.15-7.25-1.5-3.49-2.51-7.06-2.18-10.93.13-1.54-.48-2.39-2.74-4.45-.26,1.57-.51,3.02-.82,4.89-.96-1.11-1.66-1.92-2.48-2.87.24-.26.59-.65.81-.89-.93-1.46-1.79-2.91-2.76-4.28-1.29-1.83-1.28-2.31.36-3.82.51-.47,1.06-.91,1.74-1.49-.5-.32-.81-.53-1.12-.73-.27-.16-.54-.31-.99-.56.36-.47.67-.87,1.02-1.33-.16-.14-.31-.33-.5-.41-.37-.14-.76-.22-1.15-.32-3.05-.85-4.14-3.03-3.08-5.72-.56-.7-1.18-1.22-1.47-1.88-.73-1.66-1.3-3.39-2.04-5.36.31-.28.81-.74,1.39-1.27-.05-.23-.09-.54-.19-.83-.59-1.72.07-2.97,1.51-3.87.88-.55,1.86-.94,2.73-1.5.86-.56,1.99-1.07,2.4-1.9,1-2.03,2.53-2.17,4.39-1.82.3.06.62.05,1.19.09-.57-.79-1.02-1.4-1.67-2.29,1.24-.13,2.23-.23,3.34-.35.28.56.56,1.11.89,1.75,1.45-.11,2.94-.23,4.65-.36,0,.71,0,1.23,0,1.76,0,.32-.18.81-.03.93,1.68,1.39.85,3.2.85,4.85,0,1.16.48,2,1.6,2.41.44.16.89.33,1.63.61-.2,1.08-.31,2.17-.62,3.2-.73,2.37-.69,2.53,1.67,3.57.36.16.71.34,1.02.49q.47,4.68,4.16,5.8c-.71.35-1.29.65-2.09,1.05.11,1.39.23,2.87.35,4.47,1.32.3,2.53.58,3.84.88-.1,1.65.38,2.97,1.22,4.3.54.85.61,2.15.51,3.21-.13,1.33-.66,2.62-1.01,3.93-.24.9-.47,1.8-.78,3.01,1.3-.48,2.25-.82,3.21-1.18,1.18.98,2.61,1.74,1.85,3.71-.14.37.33.98.55,1.57-.5.45-1.02.93-1.83,1.68,1.76.55,3.3,1.04,5.08,1.6-.15,1.55-.26,3.3-.5,5.03-.27,1.96-.32,1.95,1.24,3.2-1.06.58-2.08,1.13-3.26,1.77.86,1.33,1.31,2.74,2.77,3.53.48.25.69,1.04.98,1.6.69,1.35,1.34,2.73,2.02,4.08.64,1.28,1.29,2.54,2,3.94-.45.68-.96,1.47-1.65,2.53,1.19-.12,1.99-1.69,3.01-.53-.65.88-1.63,1.65-1.77,2.55-.14.86.59,1.86,1.06,3.12.53-.64.8-.97,1.1-1.34.17.13.42.23.51.4.45.84,1.02,1.65,1.24,2.55.21.86.16,1.84.02,2.73-.22,1.39-.61,2.75-.93,4.12.19-.02.37-.04.56-.06.57.76,1.39,1.45,1.67,2.3.61,1.88.99,3.84,1.37,5.78.11.55.24,1.37-.84,1.32-.15,0-.46.24-.45.35.12,1.59-1.06,1.75-2.12,1.91-.14,1.71,2.22,3.04.37,4.91,2.91,1.2,4.01,3.53,3.9,6.49-.03.97-.5,1.93-.46,2.88.04,1.01.65,2.01.66,3.02.02,2.15-.16,4.3-.29,6.45-.11,1.9-.26,3.79-.4,5.75.78.14,1.3.22,1.91.33v3.62c-.51-.48-.91-.86-1.49-1.41-.51,2.49,1.15,3.89,2.12,5.63-.28.35-.57.71-.96,1.2.29.55.61,1.17.98,1.88-.66.75-1.28,1.46-1.9,2.16-.61-.23-1.11-.41-1.75-.65-.03.67-.06,1.2-.09,1.83.75.2,1.43.38,2.14.57-.07.22-.1.46-.21.65-1.17,2.03-.74,3.48,1.33,4.38,2.24.97,2.67,2.45,1.28,4.38-.23.32-.5.62-.76.93-1.42,1.66-1.85,3.49-1.05,5.57.17.44.28.91.43,1.42-.68.08-1.3.15-1.91.22-.16.25-.37.43-.41.64-.32,1.72-.83,3.45-.86,5.18-.04,2.36.03,4.79.57,7.07.24,1.04.23,1.79-.13,2.66-1.24,3-1.38,4.51,3.09,5.5,2.23.49,4.61.32,6.91.54,2.13.21,4.24.55,6.69.87.53-.98,1.89-1.24,3.27-1.65,2.03-.6,2.24,1.43,3.51,2.1.38-.58.75-1.16,1-1.54,1.85-.25,3.5-.46,5.15-.69,1.62-.22,3.14-.22,4.54.9,1.44,1.15,2.99,1.43,4.56.04.35-.31,1.01-.44,1.51-.4,2.86.19,5.57-.4,8.16-1.57,1.12-.5,2.05-.75,2.9.54.28.42,1.11.62,1.71.67,1.25.1,2.52.03,3.91.03-.14-.61-.25-1.09-.47-2.05,1.05.95,1.74,1.57,2.54,2.29.94-.81,1.83-1.6,2.74-2.36.55-.46,1.11-.93,1.72-1.3,1.81-1.11,2.83-.91,4.1.75.24.31.44.65.71,1.05,1.71-.28,3.52-1.1,4.85.9.43-.39.79-.69,1.1-1.02.89-.97,1.74-1.21,2.88-.25.56.48,1.44.6,2.19.84,1.03.33,2.07.62,3.09,1.37-.54.13-1.07.27-1.75.44.36,1.12,1.12,1.21,2.05,1.05,1.98-.35,3.53.48,5.26,2.01-1.31.14-2.27.25-3.37.37.36,1.06,1.19,1.45,2.01,1.41,1.86-.1,2.73.98,3.49,2.4.29.53.75.96,1.13,1.44v2.88Z"/>
    <path id="J" class="cls-1" d="m79.61,566.87c-2.66-.71-5.33-1.42-8.12-2.16.88-1.64,1.58-3.14,1.38-5.02-1.48-.12-3.16.87-4.26-.67-.83-1.16-.82-2.48-.47-4.03.53.41.88.69,1.34,1.05.28-.76.55-1.49.87-2.35.39.29.76.56,1.03.76,1.42-.74,2.79-1.49,4.19-2.18,1.48-.73,2.7-1.69,3.31-3.89-.93-.64-2.05-1.4-3-2.06,1.14-1.35,1.96-2.34,3.05-3.63,2.43-.35,2.31,2.35,3.44,3.87.43-.48.84-.94,1.23-1.37,2.08.71,3.71,1.87,5.08,3.5,1.41,1.67,3.2,2.27,5.37,1.32,1.8-.79,3.43-.68,5.14.61,1.92,1.44,4.02,2.06,6.3.19,1.93-1.59,4.27-2.13,6.76-1.13.36.14.78.21,1.18.2,2.65-.04,4.69.91,5.67,3.78.58-.42.96-.82,1.41-1,.79-.33,1.69-.86,2.43-.71,1.41.28,2.46-.05,3.48-.93.16-.14.45-.13.85-.22.9,1.58,2.46,1.61,4.08,1.53,1.92-.08,3.84-.13,5.76-.13,2.99,0,5.9.43,8.71,2.12.31-.75.56-1.37.9-2.21-1-.35-1.8-.63-2.67-.94.89-1.07,1.88-.83,2.73-.14,1.33,1.09,2.78.96,4.32.79,1.48-.16,2.99-.07,4.48-.21.76-.07,1.56-.29,2.23-.65,1.41-.74,2.75-1.63,4.13-2.44,1.73-1.01,3.69-1.53,5.52-.78,1.63.66,2.72.18,3.95-.66,1.17-.79,1.19-.75,2.55-.27.13-.62.27-1.22.43-1.95.43-.02.89-.1,1.34-.06,3.45.32,6.72-.25,9.65-2.13,1.1-.71,2.52-1.12,2.29-3.15-.16-1.39,2.55-2.72,4.47-2.25,1.68.41,3.39,1.02,4.87,1.9,1.4.84,2.58.85,4.05.33,10.34-3.65,19.25-9.31,25.92-18.17.36-.48.94-.8,1.42-1.19,1.43-1.12,2.95-2.15,4.28-3.38,1.46-1.35,2.74-2.89,4.24-4.52-.1-.09-.34-.3-.59-.53,1.35-2.26,1.56-2.32,4.21-1.17.33-.27.7-.57,1.25-1.02-.57-.32-1-.56-1.35-.75.06-.93.12-1.81.19-2.94,2-.33,3.42-1.84,4.51-3.63.73-1.21,1.91-.84,3.14-1.06-.76-3.86.57-6.96,3.22-9.6.39.14.73.26,1.25.45.11-1.16.22-2.23.36-3.71.53.88.89,1.46,1.49,2.45.24-1.47.36-2.54.59-3.59.44-2.09.69-2.26,3.17-2.12-.56-.87-1.05-1.63-1.44-2.25.37-.84.85-1.55.99-2.31.49-2.59,1.81-4.55,3.99-6.01.61-.41,1.03-1.1,1.5-1.69.24-.31.32-.84.61-.99,2.65-1.35,3.12-4.31,4.91-6.41-.43-.18-.78-.33-1.23-.52.1-2.37,3.33-1.77,3.75-3.98-.94-.81-2.15-1.71-.77-3.18.15-.02.33-.11.43-.05,2.42,1.42,3.26,1.18,4.29-1.42,1.2-3.04,2.31-6.11,3.41-9.19.63-1.75,1.39-3.26,3.6-3.24.25,0,.52-.27.76-.43.59-.38,1.16-.78,2.08-1.4v-5.14c1.52-.43,2.89-.81,4.49-1.26.44-2.22.9-4.54,1.37-6.89.99-.09,1.84-.17,2.84-.27-.24-.53-.42-.94-.64-1.42.38-.2.77-.41,1.21-.65-.11-.33-.2-.62-.31-.91-1.24-3.17-.93-4.43,1.7-6.63.79-.66,1.26-1.32.92-2.47-.46-1.55.19-2.98.79-4.39,1.22-2.86,2.42-5.73,3.6-8.6.14-.35.22-.8.13-1.15-.61-2.16.11-4.1.93-6.03.4-.96.85-1.9,1.17-2.89.31-.98.78-2.05.66-3.01-.48-3.91.92-7.4,2.16-10.92,1.38-3.92,2.84-7.8,4.29-11.69.16-.43.38-.94.73-1.18,1.4-.95,1.41-2.3,1.03-3.64-.63-2.2-.26-4.23.53-6.31,1.29-3.37,1.26-3.62.89-6.9,1.73-.95,2.26-2.57,2.31-4.53.05-1.75.37-3.49.59-5.38-.56-.18-1.11-.36-1.52-.5,1.77-2.74,3.5-5.42,5.44-8.42-1,.41-1.7.69-2.56,1.04-.51-1.12-.29-2.1.03-3.06.38-1.14.9-2.23,1.19-3.39.25-.98.49-2.07.31-3.04-.28-1.52-.06-2.87.66-4.16,1-1.77,1.79-3.56,1.31-5.69.51-.29.9-.6,1.33-.74.95-.32,1.76-.69,1.97-1.84.04-.22.68-.33,1.31-.6-.71-2.13-1.48-4.43-2.2-6.56.68-1.47,3.27-1.47,2.28-3.93-.68.72-1.24,1.32-2.14,2.27.07-1.02.06-1.55.15-2.05.7-4.17.52-8.28-.81-12.31-.15-.46-.33-.9-.43-1.37-.26-1.15.01-2.01,1.24-2.46.64-.24,1.2-.66,2.07-1.15-2.57-3.07-5.68-5.74-4.12-10.23.66.26,1.22.48,1.82.71.01-.29.09-.5.02-.56-1.36-1.24-1.46-2.69-.88-4.35.34-.97.5-2.01.7-3.03.09-.46.3-1.05.12-1.4-1.19-2.28-.89-4.64-.4-7.11-.66.04-1.16.07-1.76.11.31-1.63,3.01-1.87,1.98-4.13-.76-.08-1.6-.16-2.62-.27.32-1.95.62-3.81.96-5.93-.68.33-1.19.58-1.74.85-.72-2.46,1.03-3.76,2.33-5.36-1-2.68-2-5.37-3.02-8.05-.1-.26-.44-.67-.58-.63-.68.15-.76-.2-.9-.72-.58-2.08-1.25-4.13-1.8-6.21-.26-1-.29-2.05-.5-3.06-.2-1-.46-2-.77-2.97-.29-.91-.79-1.76-.98-2.68-.28-1.3-.95-2.25-2.16-2.65-2.26-.74-3.94-1.99-4.67-4.36-.18-.58-.68-1.06-1.16-1.77-.47.59-.86,1.09-1.31,1.66-.37-.5-.59-1.08-1-1.32-1.72-.99-2.59-2.59-3.18-4.36-.59-1.77-1.67-2.9-3.29-3.87-4.11-2.46-8.08-5.16-12.11-7.77-1.08-.7-2.08-1.08-3.55-.85-1.57.25-3.31-.2-4.91-.61-2.15-.55-4.23-1.35-6.39-2.06.11-.23.24-.53.49-1.06-1.13,0-2.16-.01-3.18,0-3.68.04-7.35.12-11.03.12-.78,0-1.63-.1-2.33-.41-2.45-1.07-4.79-1.1-7.18.57-3.15-2.79-6.8-3.3-10.69-2.12-1.26-2.84-1.29-2.89-4-1.46-1.95,1.03-3.78,1.2-5.96.54-1.94-.59-4.1-.54-6.17-.54-2.73,0-5.4-.14-8.07-.85-4.03-1.08-8.11-.5-12.15.1-1.21.18-2.31.34-3.45-.4-.53-.35-1.38-.33-2.08-.29-2.03.11-4.06.32-6.1.49v.97c-.76-.14-1.46-.22-2.14-.39-1.63-.42-3.23-.97-4.9-.12-.29.15-.8.04-1.14-.1-2.98-1.2-6.08-1.18-9.21-.96-3.27.23-6.54.38-9.99.58-.18.68-.67,1.24-1.76,1.03-2.07-.39-4.06-.32-6.04.71-.82.42-2.04.13-3.07.07-.95-.06-1.9-.24-2.93-.38-.85,2.21-3.08,2.14-4.78,3.07-.3-.18-.58-.31-.81-.51-1.79-1.53-1.69-1.36-3.87-.25-2.76,1.4-5.68,2.51-8.56,3.66-.64.25-1.49.39-2.11.18-1.81-.62-3.29.04-4.72.95-2.61,1.65-5.65,1.35-8.6,2.28.11-.91.17-1.44.28-2.41-1.06.64-1.82,1.11-2.66,1.61.27.5.47.87.66,1.22-.2.17-.33.36-.43.34-1.17-.2-2.35-.38-3.5-.68-1.15-.3-2.18-.4-3.15.81.71.3,1.32.56,2.36,1.01-2.14.89-3.94,1.64-6.15,2.56.33-1.09.51-1.66.78-2.55-5.68,1.69-10.14,5.16-15.15,7.82-1.14-.64-2.29-1.3-3.68-2.08-.11,1.11-.2,2.01-.28,2.89-3.15.69-3.51.57-4.79-1.6-.95,1.33.78,2.13.54,3.43-1.14-.4-2.01-.09-2.83.84-.77.88-1.9.65-2.91.24-.8-.33-1.58-.72-2.48-1.14-1.54,2.44-3.91,1.73-6.06,1.83-.12-.5-.13-1-.36-1.38-.61-.99-1.41-1.87-1.92-2.9-.22-.44.09-1.15.19-2.02.61.55.94.85,1.28,1.16.26-.31.51-.61.82-1,.47.27.93.53,1.73.98-1.04-3.31-.6-6.6-2.32-9.56-.85.05-1.7.1-2.68.16v-2.3c1.73-.94,4.86-.09,4.05-3.71,2.92-.67,4.87-2.47,6.52-5.33.2,1.13.3,1.69.44,2.43,1.14-.37,2.1-.68,3.3-1.07-1.44-1.96-.91-3.56.99-5.26.3.59.6,1.17.86,1.69,1.06-.37,1.77-.62,2.82-.99-1.19-.46-2.03-.79-2.95-1.15,2.42-2.18,2.8-2.24,4.73-.87.15-.03.36-.01.45-.11,2.12-2.43,4.62-2.56,7.37-1.25.36.17.73.32,1.11.45,2.03.74,2.36.63,3.97-1.3.94,1.11,1.99,2.11,3.72.98-.31-.37-.62-.74-.93-1.11q1.21-1.62,3.02-1.42c.26-.64.52-1.29.81-2,.91.52,1.73.98,2.76,1.56-.55-1.57.56-1.87,1.36-2.35,1.32-.79,2.25.05,3.26,1.33.19-1.16.31-1.88.44-2.65,2.79-1.26,3.86.83,5.1,2.73.39-.29.69-.52,1.09-.82-.44-.46-.81-.85-1.16-1.24.08-.14.13-.37.21-.38,2.47-.28,5.07-2.26,7.32.54.1.12.24.2.11.1,2.28-.5,4.36-.91,6.42-1.42,1.3-.32,2.56-.84,3.85-1.2,1.22-.34,2.46-.76,3.71-.84,2.25-.13,4.44-.4,6.55-1.66.32.85.59,1.57.93,2.49.77,0,1.64-.07,2.48.02,1.32.14,2.34-.04,2.89-1.48.15-.4.81-.76,1.3-.87,4.2-.94,8.4-1.96,12.65-2.67,1.93-.32,3.97-.07,5.96.01,1.32.06,2.59.55,3.9-.34.48-.32,1.46-.2,2.08.05,1.88.75,3.6.29,5.36-.36,1.27-.47,2.57-.88,3.86-1.3,1.71-.55,3.29-.29,4.78.76.62.44,1.38.68,2.04,1,1.6-2.29,1.62-2.34,4.19-1.59,1.55.45,2.93.5,4.31-.53.66-.5,1.55-.69,2.41-1.05.92,2.13,1.78,4.26,4.39,3.87,2.29-.34,1.76-2.46,1.95-4.2,2.43.97,4.73,1.86,7.01,2.83,1.09.46,2.06.67,3.13-.11,1.19-.87,2.45-.86,3.84-.19.71.34,1.68.28,2.52.2,3.33-.32,6.66-.71,9.98-1.08.16-.02.35-.05.47.02,3.34,1.95,7.22,1.65,10.81,2.54,1.26.31,2.68.03,3.69,1.29.28.34,1.21.19,1.85.2,2.08.02,4.16.01,6.12.9.41.19.98.27,1.41.15,1.99-.55,3.87-.49,5.83.3.76.31,1.97.75,2.69-.66.15-.3,1.58.06,2.42.13.93.08,1.7.35,1.45,1.61,4.79-.22,9.31.17,13.87,1.6-.24.54-.46,1.05-.81,1.85.97-.38,1.68-.66,2.41-.95,1.19.65,2.36,1.29,3.5,1.91,1.37-1.01,1.24-3.25,3.59-3.4-.48,1.4-.93,2.69-1.4,4.07,2.03.4,3.88-.01,5.36-1.05,2.62-1.84,4.78-1.16,6.95.63.49.4,1.02.75,1.62,1.18.6-.57,1.16-1.11,1.82-1.73.38.34.71.64.86.78,1.74-.55,3.35-1.06,5.29-1.68.48.53.99,1.11,1.56,1.74-.35.58-.62,1.03-.94,1.55,1.3.75,2.53,1.45,3.98,2.29-1.04,1.03-1.36,2.14-.75,3.46.22.47.16,1.09.12,1.64-.14,1.68.07,2.12,1.52,2.73.87.37,1.78.67,2.75,1.03v4.21c2.75.65,3.58,2.75,4.04,5.12.35,1.8.63,3.62,1.03,5.41.49,2.15,1.22,4.18,3.68,5.25-2.04,1.24-1.86,2.92-1.16,4.73.65,1.7.85,3.41-.47,5.02.67.92,1.27,1.75,2,2.75.47-.6.84-1.06,1.31-1.67,1.23.26,2.53.55,4.09.88-.15.93-.28,1.74-.47,2.91-.68-.64-1.09-1.02-1.62-1.52-1.18,1.29-1.06,2.76-.62,4.08.62,1.9,1.06,4.04,3.41,5.05-.83,1.16-1.71,2.37-2.72,3.78.81.18,1.39.33,1.98.44,1.77.32,1.77.32,1.79,2.36,2.53,1.41,2.69,1.93,1.49,4.67-.48,1.09-.95,2.18-1.4,3.2q2.67,3,1.32,6.44c.21.14.44.3.68.44.28.15.57.28,1.08.53-.69.51-1.26.93-1.88,1.38,3.05,1.75,3.1,1.86,2.37,4.5,1,1.09,1.9,2.32,1.21,4.1,1.57.57,1.92,1.8,1.87,3.38-.94.56-1.94,1.15-3.1,1.84.31.85.94,1.71.82,2.43-.41,2.38,1.37,4.26,1.14,6.66-.24,2.43.31,4.93.41,7.41.09,2.39.16,4.8.03,7.19-.14,2.38-.5,4.76-.85,7.13-.33,2.23-.71,3.13-1.42,3.86,1.66,1.96,2.57,4.67,5.9,5.25-1.09.69-1.91,1.21-2.94,1.86.63.31,1.08.53,1.54.76-.48.82-1.46,1.78-1.26,2.24.81,1.89-.62,3.18-.92,4.73-.12.62-.39,1.21-.64,1.96.44.28.93.51,1.32.85,1.43,1.24,1.44,3.35.04,4.6-.52.47-1.11.86-1.81,1.41.64.17,1.05.28,1.61.42-.15.43-.24.8-.4,1.13-.18.35-.42.67-.68,1.07.31.5.85.99.89,1.51.04.57-.28,1.24-.62,1.74-.86,1.26-.84,2.53-.34,3.88.55,1.49.8,2.88-.55,4.2-.79.77-.47,1.78.06,2.66,1.08,1.76.79,3.49-.09,5.29h-3.28c.7,1.85,1.34,3.55,2.02,5.36-.37.47-.74.98-1.15,1.45-.8.91-1.19,2.01-.74,3.11.55,1.34.09,2.48-.23,3.71-.72,2.76-1.4,5.54-2.12,8.39-.25-.21-.69-.57-1.25-1.04-.23,2.26-.33,4.38-.69,6.46-.68,3.97-2.24,7.69-4.12,11.21-1.19,2.24-1.65,4.48-1.45,6.9.14,1.79.02,3.34-1.07,4.96-.9,1.33-1.16,3.12-1.56,4.74-.57,2.3-1.4,4.33-3.33,5.93-.89.73-1.28,2.07-1.98,3.28.85.09,1.32.13,1.76.18.05.18.15.34.12.46-.34,1.14-.74,2.26-1.04,3.41-.37,1.44-.83,2.71-2.45,3.27-1.39.48-1.27,1.88-1.41,3.01-.08.68.15,1.4.26,2.22-.67-.05-1.21-.09-1.9-.14.55,2.58.95,5.15-2.11,6.72.68,2.93-.82,5.04-2.71,7.02-.82.86-1.48,1.89-2.29,2.77-.45.49-1.06.82-2.03,1.56-.28,1.36-.69,3.31-1.06,5.26-.65,3.46-1.81,6.63-4.71,8.9-.24.19-.55.45-.58.72-.22,1.62-1.54,2.06-2.88,2.65.42.49.76.9,1.21,1.43-.73.35-1.4.68-2.19,1.05.18.69.34,1.34.57,2.21-1.45.11-2.76.21-4.39.33,0,1.66.09,3.25-.02,4.82-.14,1.96-.52,2.2-2.72,2.04-.11,1.65-1.39,3.19-.32,4.98.12.21-.22.73-.41,1.08-2.04,3.8-4.15,7.57-6.12,11.41-.54,1.05-1.28,1.2-2.32,1.08-.11.18-.22.36-.33.54.74.44,1.48.88,2.23,1.32-.09.14-.19.28-.28.42-.67.05-1.34.1-2.22.16.82,1.19.37,1.96-.5,2.71-2.17,1.89-4.32,3.77-5.47,6.57-.36.89-1.39,1.5-2.12,2.24-.94.96-1.88,1.92-2.95,3.01-.11-.05-.47-.23-1.13-.54.61,1.17,1.07,2.07,1.63,3.15-.52.24-.98.49-1.46.68-.93.37-1.73.61-2.24,1.82-.41.97-1.9,1.48-3.11,2.35v1.04c-1.14.98-2.11,1.61-2.82,2.46-1.79,2.13-3.46,4.36-5.31,6.72-.43-.75-.73-1.27-1.19-2.06-1.36,2.44-2.61,4.69-4.02,7.22-.44-.73-.74-1.23-1.19-1.99-2.13.81-4.31,1.64-6.72,2.55.77.8,1.31,1.37,2.05,2.15-2.31,1.93-3.2,5.81-7.64,4.63.19.6.37,1.14.62,1.88-.68.53-1.42,1.11-2.4,1.87.07-.88.12-1.47.21-2.65-.8.96-1.36,1.53-1.8,2.19-.81,1.19-1.42,2.54-2.36,3.61-.98,1.11-2.18,2.07-3.41,2.91-1.31.89-2.82,1.47-4.14,2.33-1.52.99-2.95,1.52-4.64.35-1.08-.74-2.13-.41-3.01.52-1.04,1.11-2.08,2.22-3.12,3.32-1.32,1.4-2.58,2.84-3.96,4.17-1.73,1.66-3.77,2.7-5.81,2.49-.88.63-1.39,1.12-2,1.4-1.28.58-2.85.7-3.41,2.34-.06.17-.34.31-.54.37-3.37,1.04-6.41,2.69-9.41,4.53-2.29,1.41-4.87,2.09-7.39.16-.88-.68-1.58-.15-2.46.61.98.35,1.74.63,2.5.9,0,.13,0,.25,0,.38-.49.12-.98.26-1.47.35-2.9.54-5.82.87-8.39,2.61-.84.57-2.15.59-3.24.58-1.99-.01-3.99-.17-5.97-.4-.5-.06-.94-.6-1.7-1.12-4.19,1.91-8.81,1.59-13.54.17-.25.52-.48.99-.78,1.6-.89-.4-1.79-.81-2.81-1.26-.4,1.43,1.44,1.27,1.34,2.37-1.37-.14-2.81-.58-4.12-.35-4.18.73-8.47-.54-12.59.85-.42.14-.98.09-1.42-.05-3.32-1.01-6.48-.35-9.62.8-.44.16-.89.3-1.44.48-1.27-1.63-1.78-3.85-3.88-4.68-1.25,1.74-1.17,1.89,1.74,3.3-.05.59-.11,1.26-.19,2.09-1.32.1-2.48.18-3.79.27-.12-1.47-.02-2.71-.96-3.92-.63-.8-.25-2.4-.32-3.78-.54-.35-1.26-.81-1.89-1.21-.91,1.09-1.72,2.16-2.64,3.13-.7.73-.88,1.49-.55,2.4.18.5.41.98.77,1.85-1-.56-1.66-.93-2.27-1.27-2.62,1.63-5.07-.14-7.62-.07-.15-1.13-.27-2.08-.4-3.03-.18,0-.36,0-.54,0-.05.35-.09.71-.18,1.37-1.49-.18-3.14,1.01-4.88-.68,1.28-.36,2.32-.66,3.53-1-.6-1.29-1.97-1.58-2.82-2.42-1.08-1.07-2.14-.54-3.32-.24-1.55.4-3.15.49-4.8-.29.07-.6.14-1.21.22-1.96h-3.93c1.12.75,1.96,1.32,2.8,1.89l-.26.51Z"/>
    <g id="D">
      <path class="cls-1" d="m182.98,222.64q-1.51,1.81-3.29.97-2.61-1.24-4.36.92c-3.4.04-6.86.2-9.82-2.49-2.02,2.71-4.84,2.72-7.76,2.44-1.35-.13-2.71-.25-4.06-.23-1.19.02-2.08.54-2.51,1.82-.32.95-.93,1.8-1.39,2.65-2.87-1.51-5.63-.1-8.58-.39.45-.85.85-1.62,1.38-2.64-3.09.31-5.92.6-8.98.91.09.42.16.74.27,1.23-.46.45-1.83.17-1.52,1.53.06.25-.47.82-.84.96-1.81.69-3.58.86-5.08-.86-2.05.88-4.2,1.66-4.52,4.68-2.25-2.71-3.61-.05-5.43.54.05-.8.38-1.7.07-2.18-.38-.58-1.3-.82-1.99-1.19-.42-.22-.85-.42-1.51-.74-.21,1.41-1.66,2.6.14,4.07-.63.38-1.21.73-1.82,1.1-.92-.69-1.74-1.3-2.68-2.01-.99.57-1.97,1.73-3.3.33-.31.87-.55,1.52-.83,2.29.61.37,1.14.69,1.73,1.05-.12.18-.21.45-.37.51-1.38.44-1.98,1.49-2.36,2.79-.4,1.36-.89,2.69-1.35,4.03-.21.11-.42.22-.63.32-.39-.66-.77-1.31-1.27-2.15-1.68,1.91-3.73,1.54-5.68,1.46-1.67,2.6-2.74,2.94-5.53,1.66-1.01-.46-1.95-1.08-3.02-1.67-.32.46-.64.94-.99,1.44-.22-.24-.42-.37-.41-.45.31-1.81.63-3.62.97-5.42.14-.76.31-1.33-.38-2.12-.42-.48.17-1.85.32-2.94,2.12.01,4.01-.18,5.44,1.7.16-.69.31-1.29.49-2.06-1.22-.24-2.36-.46-3.43-.67-.17-.18-.32-.28-.37-.42-1.32-3.65-.94-4.62,2.87-4.61,4.36,0,7.13-2.88,10.53-4.56-.03-.2-.01-.3-.05-.34-.16-.17-.34-.32-.78-.72.94-.73,1.86-1.45,2.91-2.27.19.09.6.28,1.09.51,1.02-.83,1.55-2.66,3.38-1.81.44-.94.82-1.77,1.26-2.73,1,.44,1.78.78,2.66,1.17.59-.88,1.26-1.53,2.5-1.36.48.06,1.21-.43,1.55-.88,1.28-1.72,2.46-3.52,3.66-5.3.24-.35.4-.76.95-1.02l-.13,2.62c1.24-1.44,2.56-2.37,4.46-2.51.58-.04,1.1-.81,1.71-1.29.91.74,1.77,1.43,2.59,2.1,1.62-.32,2.39-2.59,4.61-1.33-.23-1.41.16-2.06,1.49-1.69-.18-.7-.31-1.21-.45-1.77.29-.04.54-.15.72-.08,1.44.64,2.65.45,4.04-.41,1.09-.67,2.54-.9,3.85-1.03,1.5-.14,3.03.08,4.55.09,1.72.01,3.33-.32,4.62-1.62.87-.88,1.84-1.12,3.05-.56,2.83,1.3,5.76,1.12,8.69.37,2.01-.52,4.01-1.06,6.17-1.63.09.77.17,1.45.25,2.14.19-.09.42-.13.46-.23.87-2.36,2.87-3.01,5.06-3.39,3.85-.66,7.69-1.36,11.55-1.94.52-.08,1.22.26,1.66.62,1.52,1.26,2.96,1.59,4.79.49.78-.47,2.07-.58,2.95-.3,2.21.71,4.43.77,6.64.41,3.3-.53,6.34-.08,9.25,1.58,1.93,1.1,3.98,1.49,6.23.79.84-.26,1.87.06,2.92.12.33-.88.5-2.14,1.9-1.9,1.53.27,3.52-.47,4.25,1.77.07.21.2.54.34.57,2.27.38,3.81,2.58,6.68,2.37.07-.12.37-.59.45-.72,1.94.53,3.62.96,5.28,1.48.85.27,1.85.24,2.35,1.37.19.43,1.2.53,1.85.73,1.01.3,2.04.56,3.56.97,2.07-.9,4.57-.42,7.07.76,2.14,1.01,4.15,2.46,6.66,2.42.12.14.24.25.32.38,2.15,3.62.92,2.78,5.02,3.56,1.57.3,3.13.6,4.7.9.07.01.14.08.36.22-.08.85-.16,1.79-.28,3.02.46-.57.77-.94,1.18-1.46,1.19.56,2.41,1.11,3.61,1.71.96.48,1.55,1.14,1.8,2.33.19.91.98,1.79,1.71,2.46,1,.91,2.18,1.61,3.31,2.38.99.67,1.99,1.27,2.27,2.61.2.94.98,1.08,1.87,1.09.56,0,1.43.19,1.63.57.8,1.53,1.77,3.13,1.98,4.79.46,3.53.29,3.55,3.27,4.77.96,2.31,1.85,4.53,2.81,6.72.97,2.21,1.85,4.43,1.64,7.12.48-.19.81-.32,1.3-.52,1.34,2.51,1.23,5.83,4.01,7.51-1.08,1.7.31,2.86.56,4.41.77-.27,1.41-.5,2.1-.74.07.21.26.47.19.62-.49,1.09-1.07,2.14-1.56,3.22-.49,1.09-1.03,2.17-1.32,3.31-.15.61-.03,1.62.37,1.96,1.36,1.13,1.03,2.15.17,3.31-.18.25-.24.58-.48,1.17.81-.23,1.41-.4,2.44-.68-.65,1.55-1.8,2.35-2.54,3.62,1.19,1.94-.06,3.28-1.64,4.62.41.89.79,1.75,1.2,2.59,1.61,3.3,2.03,6.45-.41,9.68-.7.93-.47,2.56-.73,4.32-1.64.72-3.65,1.6-5.72,2.51.07,1.12.45,1.9,1.58,2.1,1.22.22,1.48,1.09,1.44,2.13-.09,2.39-.24,4.78-.28,7.17-.01.74.26,1.48.43,2.35-.3.24-.73.57-1.15.9.06.17.09.4.16.42,1.45.3,1.58,1.32,1.08,2.36-.89,1.86-1.97,3.63-3.06,5.6.32.12.76.28,1.27.47.17,2.44.41,4.85-1.23,7.06-.52.71-.61,1.8-.72,2.74-.19,1.67-.24,3.35-.35,5.02-.14,2.09-.85,3.95-2.53,5.24-1.68,1.28-2.61,2.97-3.33,4.87-.42,1.12-.89,2.23-1.47,3.28-.72,1.29-1.77,2.21-3.52,2.36.3-.91.54-1.65.93-2.83-2.29,1.27-1.93,3.62-3.34,5.06-1.88-1.19-2.55-4.2-5.64-3.99-.03.52-.05,1.02-.09,1.62-1.24.61-2.53,1.24-4.1,2.01.19-.65.26-1.06.43-1.42.63-1.38.74-2.78.11-4.18-.73-1.62-.68-3.25-.16-4.91.29-.91.51-1.85.77-2.77.47-1.64.6-3.28.11-4.96-.37-1.24-.3-1.25.44-2.73.51.37,1,.73,1.61,1.17.25-1.89-1.22-2.65-2.37-3.7,1.8-1.41,2.47-3.2,2.49-5.3,0-.42.23-.97.54-1.23,1.99-1.62,1.69-3.75,1.06-5.73-.5-1.55-1.55-2.92-2.54-4.28-.02-.16-.11-.35-.05-.46.96-1.69.77-3.3-.15-4.95-.45-.81-.7-1.73-1.09-2.73,1.3-.2,2.3-.35,3.32-.51.05-.32.15-.56.1-.77-.7-3.4.48-6.11,2.98-8.37,1.41-1.28,1.53-3.22,2.32-4.82.22-.44-.29-1.37-.68-1.92-.4-.56-1.07-.92-1.89-1.59,1.27-.61,2.15-1.04,3.22-1.55-.61-3.04.06-6.19-1.23-9.16-.3-.69-.17-1.57-.19-2.37-.02-1.35,0-2.71,0-4.25.59-.3,1.36-.68,2.43-1.21-.48-.17-.71-.31-.94-.32-.31-.01-.61.08-.96.13-.1-1.06-.05-2.1-.34-3.03-.28-.89-.86-1.71-1.42-2.49-1.06-1.49-1.52-3.13-1.58-4.94-.12-3.07-.84-6.01-2.07-8.82-1.6-3.66-3.96-6.57-8.1-7.74.29-.45.53-.84.96-1.52-1.25-.88-2.46-1.88-3.81-2.64-2.64-1.49-5.38-2.82-8.04-4.27-2.49-1.36-4.71-3.04-6.09-5.84-.45.58-.8,1.05-1.33,1.74-.21-.58-.34-.99-.5-1.39-.53-1.4-1.54-2.22-3.03-2.38-1.58-.17-3.17-.3-4.84-.8,1-.24,2-.48,3.52-.84-2.69-.68-4.98-.07-7.48-.56.66-.58,1.06-.92,1.45-1.26-.1-.14-.16-.33-.27-.36-1.61-.42-3.21-.87-4.83-1.21-1.33-.27-2.68-.48-4.03-.56-2.38-.15-4.6-.57-6.31-2.42-.78-.85-1.75-.66-2.66-.26-1.47.66-2.87.45-4.42.16-2.45-.46-4.93-.43-7.2,1.07-.6.4-1.55.46-2.31.39-3.66-.32-7.3-.77-10.96-1.1-1.51-.14-3.11-.44-4.53-.1-3.72.9-7.05.47-10.09-2.22Z"/>
      <path class="cls-1" d="m235.44,435.17c.94.09,1.7.16,2.83.27-.76-1.1-1.33-1.92-1.83-2.65.96-1.03,1.97-1.92,2.74-2.99.79-1.09,1.25-2.43,2.04-3.51.94-1.27,2.09-2.39,3.24-3.67-.07-.56-.37-1.36-.19-2.05.18-.72.78-1.36,1.26-1.99.44-.57.98-1.05,1.44-1.61.4-.49.74-1.04,1.2-1.7.51-.06,1.14-.1,1.75-.22,1.11-.22,1.88-.84,2.15-1.99.39-1.69.44-3.56,2.37-4.43,2.08-5.49,5.82-10.37,6.17-16.51.02-.31.09-.61.17-1.13,1.07.76,2.01,1.43,2.96,2.1l.35-.22c-.27-.6-.51-1.21-.81-1.79-.9-1.74-1.43-3.57-1.25-5.54.07-.7.2-1.44.51-2.06.73-1.47,1.88-1.66,3.1-.56.52.47.95,1.05,1.52,1.69,1.18-1.52,2.3-2.95,3.52-4.51,1.22.89,2.46,1.52,2.64,3.21.18,1.66,1.65,1.1,2.83,1.29,1.05,1.69,2.19,3.42,3.23,5.22.78,1.34.94,2.71-.51,3.83.46.67.9,1.24,1.27,1.85.88,1.45.83,1.74-.37,3.08-1.24,1.38-1.22,1.69.3,4.39-.41.09-.76.17-1.33.29.29.7.56,1.37.98,2.38-.95-.45-1.57-.74-2.4-1.14-.05.54-.13.96-.13,1.37,0,1.58-.48,2.99-1.41,4.25-.66.9-1.41,1.74-2.1,2.62-.69.88-1.57,1.69-1.98,2.69-1.02,2.44-2.02,4.81-4.59,6.08-.36.18-.57.75-.75,1.19-.54,1.32-.95,2.71-1.55,4-.74,1.58-.22,2.95.61,4.33-.72.26-1.51.33-1.9.76-.36.4-.35,1.18-.42,1.8-.2,1.58-.27,3.18-.56,4.75-.12.61-.59,1.3-1.11,1.67-2.16,1.58-2.94,3.52-1.73,6.2-.69-.18-1.2-.32-1.84-.49.08.56.15.99.21,1.41-.99.74-2,1.39-2.89,2.19-.64.58-1.43,1.27-1.61,2.03-.46,2.01-2.18,3.08-3.11,4.71-.15.27-.39.58-.66.67-1.95.68-2.24,2.2-1.99,3.98-.91.48-1.76.92-2.8,1.46.1,1.42-.61,2.54-1.68,3.59-.55.54-.97,1.54-.92,2.3.16,2.22-.99,3.42-2.79,4.27-.65.31-1.34.56-1.92.98-.41.3-.89.78-.95,1.23-.22,1.72-1.66,2.42-2.62,3.55-1.17,1.38-2.54,1.43-4.07,1.38-.27,0-.54.08-.89.51.88.41,1.76.82,3.02,1.41-1.13.83-2.04,1.53-2.98,2.17-2.18,1.48-4.48,2.82-5.43,5.52-.1.29-.33.57-.58.76-3.68,2.86-6.17,7.14-10.69,9.04-.66.28-1.34.98-1.61,1.65-.99,2.47-2.87,3.75-5.33,4.37-.31.08-.61.19-.9.31-.07.03-.12.1-.27.23.11.45.23.96.4,1.69-1.57.47-3.07.92-4.64,1.4-.47.65-1.04,1.45-1.63,2.27-1.89-.99-.96-2.58-1.37-3.92-1.35.57-1.83,1.85-2.61,2.79,1.2,3.22,1.19,3.52-1.48,5.72-1.28,1.05-2.75,1.92-4.25,2.64-1.61.77-2.58.69-5.58.22.12,2.1-1.52,2.63-3.03,3.32-2.85,1.31-5.41,3.03-7.74,5.16-1.75,1.6-3.84,2.84-5.95,4.35-1.83-1.28-3.69-.5-5.52.55-.41.24-.8.52-1.22.76q-1.64.94-1.79,3.06c-.7-.05-1.41-.04-2.11-.16-1.31-.23-2.5-.09-3.69.6-.55.33-1.37.5-1.98.37-.95-.2-1.64-.12-2.38.58-2.06,1.95-4.43,2-6.89.87-1.63-.75-3.07-1.93-5.09-1.7-.57.07-1.23-.64-1.84-1.01-.88-.53-1.75-1.07-2.8-1.71-.27,1.03-.49,1.83-.72,2.71-1.19-.12-2.52.47-3.13-1.32-1.84,1.09-4.27,1.17-5.3,3.66-.21-.42-.49-.76-.54-1.12-.16-1.2-.91-1.75-1.97-2.12-.82-.29-1.6-.73-2.38-1.13-3-1.53-3.35-1.63-6.68-1.84.18-.41.34-.78.56-1.29-1.29.21-2.45.41-3.74.62v-1.53c-2.12-1.33-4.28-2.69-6.85-4.31.73-.41,1.27-.72,2.03-1.14-1.53-1.49-1.79-2.96-1.04-4.68.59-1.35.88-2.84,2.4-3.65.39.11.91.26,1.47.42.79-.9,1.63-1.67,2.26-2.58,1.56-2.27,3.54-3.69,6.39-3.74.45,0,.93-.23,1.35-.43,2.09-1.01,2.36-.96,3.73.83.18.24.36.49.89.69-.05-.63-.08-1.26-.16-1.89-.08-.62-.21-1.24-.35-2.07,2.33-.72,4.59-1.42,6.82-2.11,1.28,1.12,2.45,2.13,3.79,3.3.32-.67.5-1,.64-1.35q.77-1.86,2.81-1.84c2,.02,2.06.05,2.71-1.8.34-.97.93-1.13,1.83-1.09,1.22.06,1.23,0,2.2-.85v2.41c3.47-.67,5.29,1.32,6.95,4.01.07-.72.14-1.44.23-2.36.36,0,.82-.14,1.09.02,2.99,1.78,6.55.96,9.67,2.16.3.12.92-.22,1.22-.52,1.51-1.52,3.4-1.7,5.12-.91,3.06,1.41,5.88,1.02,8.69-.47,1.87-1,3.69-2.1,5.62-3.21.04.13.2.59.4,1.2,2.38-2.74,4.98-4.94,8.18-6.38.53-.24.94-.83,1.29-1.34.72-1.06,1.32-2.19,2.05-3.24.38-.55.92-.99,1.49-1.58-.19-.22-.54-.62-.87-1.01.09-.15.14-.34.24-.38,2.78-1.05,5-2.78,6.61-5.31.38-.6.97-1.06,1.45-1.59.37-.41,1.01-.82,1.05-1.27.22-2.64,2.59-3.93,3.68-6.02.4-.77,1.34-1.3,2.12-1.82.44-.3,1.04-.42,1.59-.5,2.38-.34,3.55-1.67,3.92-4.07.36-2.36.94-4.71,1.66-6.98,1.04-3.31,2.72-5.25,5.56-6.79.07.81.14,1.55.23,2.52.93-.33,1.79-.63,2.86-1-.83-.79-1.5-1.43-2.38-2.27,1.3-1.53,2.6-3.07,3.98-4.69-.48-.43-.86-.78-1.26-1.14.69-1.1,1.2-2.22,2-3.08.66-.71,1.61-1.49,2.5-1.57,1.45-.15,2.4-.84,3.18-1.86,1.01-1.33,1.91-2.76,2.85-4.15.76-1.11,1.51-2.23,2.24-3.33Z"/>
      <path class="cls-1" d="m63.4,332.34c.44.55.72.89,1,1.24.73-1.44.83-1.62-.28-2.77-1.02-1.05-1.18-2.05-.87-3.43.61-2.7,1.01-5.45,1.52-8.33.58.45.93.73,1.32,1.03.08-.25.19-.41.15-.51-1.93-4.41-2.23-8.94-1.15-13.6.14-.59.1-1.27-.05-1.87-.7-2.92-.75-5.84-.44-8.81.22-2.12.32-4.25.5-6.74.75.55,1.2.88,1.85,1.35.12-.84.22-1.57.33-2.43h-1.85v-3.82c1.05-.22,2.17-.45,3.54-.73-.36-.47-.61-.83-.88-1.17-2.08-2.51-2.72-5.47-2.17-8.55.29-1.63.14-2.95-.74-4.28-.21-.32-.31-.71-.48-1.13,2.47-1.45,4.84-2.85,6.96-4.09,1.18,1.79,2.27,3.44,3.43,5.2-.58.24-1,.4-1.42.57.09.13.15.3.24.33.69.19,1.37.42,2.07.5,2.23.26,4.3.73,4.98,3.39,3.8-1.6,4.82,1.98,7.24,3.56-2.09,3.08-1.82,6.53-1.8,9.95,0,.68.19,1.47-.94,1.6-.18.02-.26.95-.49,1.84,1.19-.46,1.9-.74,2.96-1.15,0,1.58.03,2.97-.02,4.36-.01.35-.2.78-.46,1.03-1.5,1.49-1.95,3.23-1.2,5.3-.75.31-1.39.57-2.19.9,1.03,1.51.02,2.22-1.12,2.87.28.37.65.64.69.95.35,2.69.88,5.39.85,8.08-.02,1.54-.96,3.08-1.56,4.85.15.14.61.57,1.17,1.08-.59.36-1.11.68-1.78,1.09.92,1.6,1.82,3.18,2.76,4.8-.99,1.53-.85,2.96-.37,4.73.6,2.25.23,4.76.39,7.15.06.84-.84,2.11.83,2.44v3.65c-1.1-.45-1.93-.78-2.88-1.17-.27,2.06,1.95,1.61,2.53,2.84-.84,1.48-1.72,3.03-2.59,4.58.11.08.23.16.34.24.66-.6,1.32-1.2,2.05-1.86,1.91,2.52-1.15,3.03-1.68,4.62.57.87,1.17,1.79,1.93,2.97-.39.25-.78.5-1.14.73q1.06,2.77-1.67,3.5c.38.27.68.49.99.69,2.61,1.64,2.9,2.78,1.37,5.52-.47.84-.99,1.64-1.58,2.63.54.39,1.09.78,1.67,1.19-.41,1.09-.84,2.23-1.36,3.6.79-.11,1.28-.19,1.79-.26,0,.27.06.45,0,.55-1.43,2.11-1.93,4.88-4.5,6.48.81,1.57,1.71,3.31,2.63,5.1-.7.86-1.36,1.65-2.13,2.59.34.24.63.44.98.68-.19.46-.73,1.15-.56,1.45,1.39,2.5.8,4.77-.76,7.04,1,.76,1.9,1.44,2.81,2.13-.04.1-.09.2-.13.3-.83-.14-1.66-.29-2.49-.43.26.87.37,1.81.82,2.55.52.85,1.34,1.52,2.26,2.5-1.21.13-2.1.23-3.42.37,1.34,1.63,2.49,3.02,3.79,4.6-2.78,1.08-5.17,2.45-5.27,5.75-.05,1.78.48,3.34,2.28,4.97-.22-1.19-.34-1.83-.49-2.63,1.17.23,1.16,1.08,1.16,1.79-.01,1.71-1.8,1.24-2.78,2.13.11,1.06.23,2.22.36,3.45.83.27,1.56.51,2.62.85-1.17,1.36-2.18,2.54-3.25,3.78.55.44,1.2.71,1.42,1.19.2.43-.01,1.08-.12,1.62-.55,2.65-1.12,5.3-1.72,8.1.91.58,1.83,1.16,2.92,1.85-.53.43-.97.85-1.46,1.2-1.09.77-1.73,1.64-.97,3.03.17.3.25.88.08,1.1-.83,1.06-.07,1.72.64,2.37-.95.4-1.82.63-2.54,1.1-1.96,1.28-1.95,3.23-.05,4.54.79.54,1.57,1.08,2.58,1.78-.38.88-.63,1.79-1.12,2.55-1.37,2.12-2.04,4.19.18,6.36-.75.11-1.28.18-2.05.29.35,1.86.7,3.64,1.01,5.43.15.86.4,1.77.27,2.6-.12.78-.51,1.83-1.11,2.17-.96.54-1.15,1.23-1.22,2.12-.13,1.59-.19,3.2-.39,4.78-.16,1.26-.42,2.52-.78,3.73-.52,1.75-.57,1.74,1.3,2.8-.6.45-1.15.85-1.77,1.32.2.64.45,1.3.6,1.98.19.93.58,1.57,1.56,1.9,1.49.51,2.02,1.67,1.81,3.22-.14,1.02-.2,2.05-.3,3.15-1.53.6-2.99,1.17-4.47,1.76q1.93,3.22.1,5.48c.6.25,1.15.48,1.89.79-.61.83-1.19,1.64-1.8,2.46.42.35.83.69,1.28,1.07-.44,1.47-1.09,2.65-2.45,2.82v5.62c-.45.2-1,.44-1.65.72.06.37.12.82.2,1.35-1.92.8-3.63,2.98-5.86.85-.84.55-1.64,1.08-2.55,1.68.56.62,1.24,1.37,2.17,2.39-.94.16-1.67.37-2.39.39-2.05.05-2.63-.65-2.17-2.64.28-1.23.66-2.44,1-3.66h1.23c-.02-.14,0-.31-.07-.38-.8-.78-1.63-1.53-2.42-2.32-.8-.81-1.41-1.68-1.47-2.91-.08-1.49-.84-2.7-2.09-3.88-.43,1.26-.8,2.34-1.21,3.54-1.41-3.46-1.54-5.4-.84-8.8.21-1,.09-2.06.17-3.08.1-1.26.24-2.52.36-3.78.05-.54.24-1.11.12-1.6-1.08-4.21-.71-8.43-.08-12.63.74-4.92,1.11-9.83.81-14.81-.29-4.83.12-9.56,2.35-14.02.52-1.04.55-2.55.3-3.73-1.22-5.73-.3-11.47-.14-17.19.05-1.69.91-3.35,1.47-5.26-.02-.03-.13-.34-.34-.56-1.65-1.8-2.22-3.58-.22-5.58.65-.65.82-1.56.53-2.65-.26-1-.1-2.24.25-3.24.63-1.81.69-3.57.35-5.42-.2-1.09-.25-2.22-.3-3.33-.02-.51-.07-.98.74-1.23.89-.28.83-1.15.48-2.02-1-2.49-.48-5,1.44-6.7.35-.31,1.06-.2,1.69-.31-.22-1.81-1.7-2.48-3.05-3.3-1.49-.91-1.48-.93-.71-2.86.24.57.4.93.61,1.43.64-.12,1.32-.25,2.15-.41-.51-1.74-.97-3.32-1.45-4.97h-1.65c.12-1.22.24-2.34.36-3.56,1.87.44.69,2.09,1.59,2.88,1.33-.81.92-2.12.3-2.8-2.36-2.61-1.93-5.59-1.52-8.62.3-2.21.59-4.42.9-6.81,1.36.2,2.65.38,4.07.58-.39-.59-.77-1.16-.95-1.44.51-1.89.96-3.54,1.38-5.11-3.89-2.94-4.26-3.83-3.71-8.67.18-1.58.46-3.08-1.03-4.4-.54-.48-.66-1.86-.43-2.69,1.48-5.3,1.93-10.67,1.53-16.14-.01-.15.08-.3.23-.84Zm7.15,185.84c1.77-.88,1.48-1.97,1.44-3.52-.99,1.14-1.19,2.05-1.44,3.52Z"/>
    </g>
  </g>
  <path class="cls-1" d="m0,133.98c.49-.81.91-1.66,1.49-2.4.35-.44.94-.7,1.63-1.19-1.68-3.46.2-6.6,2.11-9.8-.56-.12-1.09-.23-1.74-.36v-2.96c1.08-.57,2.68-.71,3-2.29.25-1.24.3-2.52.45-3.9.57.06,1.17.13,1.97.22-.18-1.27-.36-2.47-.53-3.67,1.15-.2,1.65,2.17,3.05.63-.12-.29-.18-.52-.3-.71-1.51-2.37-1.44-2.86.71-4.52.5-.39,1.04-.74,1.56-1.11.44-.32.88-.64,1.59-1.17-.81-.25-1.35-.41-2-.61.21-.23.32-.47.49-.51.46-.12.94-.19,1.42-.21,1.41-.06,2.17-.87,2.58-2.12.17-.53.32-1.07.48-1.61.37-1.28,1.11-2.1,2.56-2.05,1.24.04,1.81-.55,2.11-1.79.24-.95.89-1.83,1.48-2.66.5-.7,1.16-1.28,1.92-2.1-.87-.12-1.47-.2-2.39-.33.9-1.41,1.72-2.69,2.64-4.12.49.52.83.89,1.34,1.43.82-2.13,1.57-4.07,2.46-6.35,1.2,1.42.26,2.68.79,3.93.66-.6,1.27-1.16,1.99-1.82.37.22.79.47,1.42.84-.74-2.81,1.04-4.4,2.42-6.06,1.01-1.21,2.33-2.17,3.63-3.35-.78-.47-1.51-.9-2.22-1.32.3-3.71.77-4.15,3.72-3.51-.1-2.88.48-3.45,3.17-3.04-.06.35-.11.7-.17,1.07.16-.04.33-.03.43-.1,2.84-1.93,5.63-3.94,8.52-5.79,1.59-1.02,1.69-2.6,1.96-4.14.05-.26-.54-.63-.95-1.07,1.38-1.18,2.75-2.35,4.12-3.52.11.07.22.14.33.21-.2.73-.41,1.46-.61,2.2q1.58-.25,3.25-1.78c-.35-.54-.72-1.11-1.19-1.83,1.97-.67,3.91-1.33,5.86-2,.05-.65.09-1.18.14-1.83.3.13.59.17.65.31.19.43.24.91.43,1.34.49,1.13,1.33,1.56,2.27.84,2.57-1.99,4.91-1.25,7.29.29.46.3.95.55,1.68.97-1.54,2.31-1.13,5.86-5.08,6.46-.29,1.32-.69,2.7-.88,4.1-.14,1.08-.61,1.72-1.58,2.17-1.15.54-2.25,1.19-3.5,1.86.56.37,1,.66,1.56,1.02-2.04,1.36-3.6,2.89-3.26,5.71-1.17,0-2.17,0-3.18,0-1.48-.01-2.05.45-2.16,1.91-.07.93-.01,1.87-.01,2.9-.96.17-1.63.29-2.33.42-.05.5-.08.98-.15,1.44-.21,1.33-.95,1.92-2.29,2.35-1.83.6-3.76,1.44-5.15,2.71-1.29,1.19-1.92,3.08-2.84,4.66-.88,1.51-1.68,3.07-2.68,4.49-1.67,2.36-1.98,2.9-2.45,5.86-.76.11-1.6.24-2.45.34-.78.09-1.57.14-2.59.23.41,1.42.77,2.67,1.13,3.91-.14.08-.27.16-.41.24-.53-.68-1.07-1.36-1.79-2.28-.79,2.4-1.52,4.62-2.3,6.97-1.64-.76-.7-2.56-1.88-3.4-.5,1.87.55,4.1-1.67,5.21.28.57.47.97.71,1.46-1.29.96-2.55,1.91-3.93,2.94.53.62.98,1.15,1.49,1.74-.65,1.46-.97,3.07-2.74,3.71-.29.1-.41.63-.67.89-.35.34-.71.73-1.15.89-1.32.48-1.57.91-1.43,2.41.05.5-.02,1.1-.26,1.54-1.75,3.3-3.57,6.57-5.34,9.87-.45.83-.82,1.71-1.28,2.68-1.42-.7-2.72-1.35-4.19-2.08-.2,1.02-.33,1.7-.5,2.58,2.51.69,1.26,3.89,3.66,4.95-2.3.94-4.18,2.31-6.6,1.26-.42-.18-1.29-.06-1.56.25-1.37,1.65-3.01,1.03-4.63.72-.31-.06-.61-.15-.95-.23-.7-1.46-.25-2.83.29-4.17.54-1.33,1.24-2.6,1.74-3.94.36-.94.51-1.96.84-3.32-1.79.95-3.2,1.69-4.61,2.43,0-.16,0-.32,0-.48Z"/>
  <path class="cls-1" d="m156.2,467.23c-2.5.24-4.94.53-6.92-1.8.46-2.47-1.21-3.78-3.42-4.74-.88-.38-1.74-.82-2.55-1.33-1.68-1.04-2.01-1.7-1.44-3.58.55-1.8.47-3.52.31-5.38-.64-7.66-.93-15.34,1.51-22.81.12-.36.31-.87.16-1.13-1.23-2.13-.4-4.22.06-6.29.96-4.36,1.13-8.81,1.44-13.24.11-1.57-.52-3.19-.38-4.75.47-5.07-.09-10.13.75-15.24.97-5.86.86-11.9-.43-17.82-.28-1.31-.3-2.7-.23-4.05.04-.74.3-1.66.81-2.14,1.02-.97.96-1.91.42-3.01-.45-.91-.89-1.82-1.29-2.63.16-1.52.22-3.03.51-4.51.24-1.22.72-2.39,1.12-3.57.13-.36.52-.69.52-1.03.02-2.71-.03-5.41-.06-8.12,0-.78-.14-1.6.05-2.33,1.14-4.34,2.01-8.72,2.25-13.21.1-1.79.56-3.45,1.52-4.98.47-.74.84-1.55,1.15-2.36.54-1.41,1.52-2.39,2.81-3.08q3.71-1.98,5.44-5.19c.68,0,1.49.23,2.01-.06.64-.36,1.14-1.1,1.52-1.78.69-1.23,1.25-2.54,1.94-3.97.74.99,1.36,1.81,2.1,2.8,1.46-.36,2.97-.73,4.97-1.22-1.36,1.48-2.37,2.57-3.55,3.84,1.38.44,2.54.8,3.71,1.17.06-.11.11-.22.17-.34-.43-.53-.85-1.06-1.31-1.63,2.31-.72,2.62-.52,3.76,2.46-.45.06-.86.12-1.36.19-.09.43-.23.88-.27,1.35-.03.3.09.61.19,1.13.92-.56,1.71-1.04,2.68-1.63.12.39.22.71.39,1.29.83-.33,1.68-.67,2.74-1.08-.56-.7-1.02-1.26-1.49-1.86,2.93-1.23,4.04-.69,4.65,2.2.24,1.17.37,2.37.65,3.53.29,1.16.76,2.26,2.06,2.81.47-.89.9-1.69,1.33-2.5.13.05.27.1.4.15-.32,1.09-.64,2.18-.96,3.26-.74,2.49-.3,3.3,2.2,4.03.68.2,1.36.39,2.11.6.08.93.15,1.79.22,2.69-.72.48-1.37.91-1.98,1.31.09,1.96,1.3,2.39,2.9,2.19-.05,2.06-.05,3.97-2.76,4.02-.18.77-.35,1.45-.5,2.09.13.16.24.38.31.37.88-.12,1.05.53,1.23,1.14.52,1.75,1.02,3.52,1.5,5.17-1.26.62-2.75.92-3.48,1.83-.76.95-.78,2.49-1.16,3.91-3.2,1.29-3.3,1.89-.57,4.56.45.44.87.91,1.43,1.49-.63.38-1.14.7-1.67,1.01-.92.54-1.3,1.31-1.25,2.39.18,3.49-1.62,6.17-3.64,8.77-1.81,2.34-3.53,4.75-5.29,7.13-.85,1.15-1.7,2.31-2.53,3.45-.66-.11-1.18-.2-2.03-.35.22,1.44.13,2.81.66,3.88,1.12,2.26.51,3.99-1.04,5.65-.27.29-.5.62-.91,1.13,1.32.33,1.45,1.3,1.5,2.42.12,2.63-.57,5.05-1.64,7.49-.28-.27-.5-.47-.79-.74-1.03.59-1.24,1.59-1.13,2.64.1.94.31,1.89.6,2.8.56,1.75.74,3.44-.31,5.01.43,1.13,2.45,1.41,1.42,3.33-.52-.41-.96-.75-1.65-1.28v5.38c-2.16-.33-1.33,2.37-3.26,2.38,2.23,1.54,2.31,1.62,1.44,3.81-.6,1.52-.6,2.98.07,4.41,1.27,2.71,2.38,5.41,1.52,8.52-.14.51.24,1.25.55,1.77,1.59,2.66,5.19,3.4,7.99,2.1,2.44-1.12,4.2-2.79,5.58-4.98.43-.67.68-1.36,1.78-1.24.41.04,1.07-.65,1.36-1.15,1.37-2.43,2.75-4.86,3.93-7.39.61-1.3,1.28-2.31,2.73-2.65.31-.07.59-.24.88-.38,2.23-1.03,2.24-1.04,1.56-3.47,1.03-.54,1.93-1.18,2.06-2.59.12-1.23,1.23-1.78,2.27-2.26.92-.43,1.83-.9,2.94-1.46-.36-.96-.65-1.76-.96-2.55-1-2.59-.77-4.99.96-7.23.68-.88,1.25-1.85,1.78-2.84,1.14-2.12,2.72-3.32,5.25-2.75.22.05.45,0,.93,0-.13-1.54-.25-3.01-.38-4.72.94-.41,1.94-.84,3.18-1.38.06-4.6,4.49-5.57,7.27-8.06-.32-.65-.6-1.22-.95-1.95h1.43c.6-1.62,1.84-3.05,1.54-5.04-.05-.36.35-.87.67-1.18,1.54-1.56,3.42-1.98,5.51-1.5.85.2,1.67.51,2.56.79.61-.76.69-2.35,2.3-1.29.36-1.12.64-2.01,1.06-3.35,1.77,2.05,3.42,3.77,4.84,5.66,1.32,1.75,1.47,3.84,1.13,5.97-.3,1.89-.71,3.78-.84,5.68-.1,1.49-.72,2.34-2.09,2.81-.74.26-1.42.7-2.29,1.14.29.78.78,1.51.75,2.22-.03.67-.6,1.32-.97,2.05.18.29.43.68.75,1.19-.55.08-.98.15-1.5.23-.71,2.9-.83,6.22-4.61,7.13-.08,1.24-.15,2.34-.23,3.57-.63-.1-1.16-.19-1.72-.29-.85,1.38-1.63,2.83-2.58,4.15-.87,1.23-.97,3.15-3.07,3.45-.07.42-.18.88-.23,1.34-.2,1.83-1.38,2.74-2.95,3.43-1.56.68-1.62,1-1.05,2.58.08.22.19.44.28.66.74,1.8.6,3.45-.86,4.84-1.57,1.49-2.04,3.33-1.92,5.42.03.43-.09.95-.33,1.31-.96,1.46-2.02,2.86-2.99,4.31-.43.64-.74,1.37-1.26,2.36-2.35-.57-4.28.7-5.64,3.29.11.21.31.6.53,1.04-1.68.53-3.35,1.06-5.11,1.61.43.87.79,1.57,1.21,2.42-1.59,1.21-2.51,3.33-4.96,3.31-.07,0-.16.06-.2.12-1.6,2.05-3.73,3.44-5.88,4.84-.53.35-.44,1.64-.71,2.83-1.25.25-2.79.59-4.34.86-1.38.24-2.52.75-3.42,1.93-1.61,2.1-3.48,3.94-5.88,5.21-.74.39-1.36,1.11-1.87,1.81-1.48,2.04-1.45,2.07-3.3.6-1.82.61-3.59,1.28-5.42,1.8-.74.21-1.59.13-2.38.09-1.35-.07-2.69-.26-4.03-.33-1.87-.09-2.01-.16-2.68-2.31Z"/>
  <path class="cls-1" d="m146.23,105.77c4.14-1.26,7.92-3.8,12.63-2.88.44-1.55,1.54-1.95,3.04-1.87.82.04,1.75-.2,2.48-.6,2.03-1.09,4.18-1.55,6.46-1.57,2.79-.02,5.58,0,8.57,0,.08.39.2.95.4,1.95,1.75-2.74,3.99-2.45,6.36-2.08,1.3.2,2.69.04,4.02-.11,1.58-.18,3.14-.66,4.73-.77,1.25-.09,2.63-.09,3.77.35,1.63.62,3.25.68,4.93.73,4.15.13,8.34,0,12.42.61,2.93.44,5.73.82,8.72.52,4.33-.42,8.59.6,12.82,1.45,4.94.99,9.85,2.04,14.91,2.28,1.53.07,3.02.84,4.69,1.34.06-.15.25-.6.49-1.2,1.35,1.23,2.68,2.22,4.54,1.76.31-.08.77.19,1.09.4,2.32,1.59,5.01,2.03,7.69,2.48,4.77.8,6.1,1.32,8.86,3.63,1.9-.57,3.77-.38,5.51.95.51.39,1.38.52,2.06.45,2.68-.28,4.17,1.18,5.23,3.35.13.27.25.55.46.98.58-.61,1.06-1.11,1.44-1.52,1.86,1.34,3.68,2.66,5.45,3.94,1.02-.1,1.97-.29,2.91-.26.6.02,1.36.19,1.76.58,2.15,2.11,4.76,2.91,7.68,3.36,1.58.25,3.19,1.09,4.53,2.02,2.62,1.83,5.17,3.72,8.11,5.08,1.08.5,2.17,1.51,2.71,2.56.95,1.86,2.31,3.21,3.92,4.43.94.71,1.79,1.55,2.81,2.43-.44.74-.87,1.31-1.14,1.95-.26.63-.7,1.5-.47,1.98.53,1.1-.27,1.6-.66,2.27,1.33,3.15,1.27,3.36-1.8,5.8-.39-.33-.79-.67-1.48-1.25.33,3.34-.64,5.46-4.29,5.41-.13-.43-.27-.93-.44-1.53-1.07.29-2.13.57-3.31.89-.16-.24-.4-.47-.47-.75-.44-1.92-1.84-2.7-3.58-3.1-1.53-.35-3.06-.69-5.02-1.13,1.42-1.23,2.51-2.18,3.48-3.02-1.57-.38-3.02-.74-4.7-1.15-.12.09-.48.36-1.06.79-.2-1.34-.37-2.5-.57-3.85-1.23,1.08-.82,2.76-1.77,3.95-.94-.7-1.81-1.36-2.75-2.05-.87.43-1.7.85-2.66,1.32-.98-1.46-1.64-3.22-2.91-4.12-1.27-.9-3.22-.78-4.74-1.41-1.9-.8-3.68-1.92-5.5-2.92-.26-.15-.66-.44-.65-.64.11-1.74-1.22-.94-1.93-1.3-.54.74-1.01,1.37-1.73,2.35-.52-.68-.85-1.38-1.4-1.78-1.6-1.17-3.2-2.38-4.96-3.26-1.7-.85-3.57-1.37-5.41-1.91-1.67-.49-3.16-1.12-3.77-2.92-1.15,0-2.22.16-3.22-.04-1.46-.29-3.06-.55-4.27-1.33-1.42-.93-2.73-1.15-4.29-.82-.77.16-1.56.2-1.85.24-.86-.64-1.3-1.2-1.84-1.32-2.03-.43-4.08-.75-6.13-1.04-.52-.07-1.14-.06-1.6.16-2.12,1.01-5.85,1.02-7.99.14-1.68-.69-3.44-1.34-5.23-1.59-5.32-.74-10.65-.95-15.99.04-2.03.38-4.14.37-6.21.43-.86.02-1.92.03-2.56-.42-1.39-.98-2.69-.69-4.1-.3-1.46.4-2.93.82-4.42,1.09-3.59.66-4.36.09-5-3.67-1.27-.18-2.25.31-3.03,1.32-.15.19-.27.4-.4.6-2.29,3.77-3.18,4.06-7.33,2.38-.22-.09-.43-.21-.81-.39.38-.5.74-.96,1.19-1.54-.85-.66-1.69-1.32-2.95-2.3-.13,1.7-.22,2.93-.32,4.27-2.25.54-4.51.22-6.88-.28v1.36c-2.29.25-4.08-.72-5.92-2.34-1.19.9-2.44,1.72-3.53,2.71-.96.86-1.95,1.22-3.24,1.2-5.03-.06-10.07-.09-15.1-.01-2.15.03-4.26.35-6.01,1.94-1.1,1-2.63,1.11-4.09,1.04-1.33-.06-2.66-.2-4.02-.3.11,1.01.2,1.91.29,2.69-1.9.51-3.56.95-5.23,1.39-1.31.34-2.11-.4-2.7-1.62-2.79,1.42-5.4,2.75-8.13,4.14-.44-.86-.82-1.62-1.4-2.78v3.23c-.65.03-1.17.06-1.69.08-2.66.08-4.64,1.53-6.52,3.2-2.32,2.06-4.42,4.44-7.53,5.4-.78.24-1.57.44-2.42.68.31.53.66,1.12,1.16,1.97h-5.55c-2.45,6.23-3.74,6.86-10.27,10.65-1.01-.84-1.84-1.86-2.92-2.32-1.48-.64-2.9.13-4.31.82-2.24,1.09-4.59,1.98-6.82,2.93-.47-.57-.76-.94-1.1-1.35-.46.44-.86.81-1.24,1.17-3.71-1.22-5.85-6.02-4.11-9.47.75-1.48,1.94-2.73,2.82-4.15,1.17-1.89,2.42-3.76,3.28-5.8,1.24-2.94,3.53-4.12,6.6-3.01.11.04.28-.07,1.01-.26-1.08-.63-1.89-1.1-2.7-1.57l.28-.69c2.73-.96,5.46-1.93,8.2-2.89.37.59.62.97.86,1.35.18-.04.39-.01.45-.1.86-1.15,2.02-1.78,3.4-2.07,2.16-.46,4.13-1.26,5.43-3.2.04-.07.1-.13.17-.17,3.86-2.3,6.99-5.51,10.43-8.34.96-.79,2.22-1.26,3.39-1.75,1.62-.69,3.26-.76,4.94.36.13-.74.25-1.4.38-2.12.69.21,1.29.4,1.81.56,1.19-.81,2.3-1.56,3.58-2.43-.76-.81-1.45-1.54-2.14-2.28,2.79-2.64,3.54-2.84,5.41-1.29.62-1.71,1.94-2.03,3.58-1.88,1.49.13,2.99.03,4.76.03-.31-.85-.52-1.4-.72-1.95.22-.05.39-.15.49-.11.58.26,1.14.58,1.72.85.36.17.9.52,1.08.39,1.95-1.37,3.01.43,4.37,1.14.14.07.3.08.63.17.66-.49-.24-1.83,1.12-2.2,1.21-.32,1.43.84,2.29,1.01.39-.88.77-1.74,1.19-2.68.91.1,1.75.19,2.63.28-.23-.8-.71-1.54-.57-2.14.29-1.25,1.76-1.66,2.92-.93.46.29.84.73,1.19,1.15.3.36.51.78.83,1.29Z"/>
  <path class="cls-1" d="m192.73,47.33c.43.54.91,1.15,1.36,1.72.2-.01.3.01.35-.03,2.92-2.21,6.49-2.43,9.87-3.15,1.72-.37,3.48-.28,5.16.54.6.29,1.38.33,2.06.29,1.11-.07,2.22-.3,3.32-.48,3.39-.55,6.64.15,9.95.86,11.09,2.36,22.23,4.5,33.34,6.79,2.34.48,4.64,1.18,6.93,1.88.55.17.97.74,1.89,1.47,3.06-.07,6.32,1.61,9.71,2.71,1.45.47,2.7,1.38,3.33,2.91.79,1.91,2.33,2.74,4.31,2.9.72.06,1.44.11,2.14.26,2.19.45,2.72,1.08,2.94,3.37.02.22.09.44.15.71.66,0,1.3.07,1.91-.02,1.01-.13,1.76.21,2.64.76,1.32.83,2.83,1.45,4.34,1.88,2.15.61,4.04,1.45,5.18,3.52.26.48.65.96,1.1,1.25,4.33,2.85,8.53,5.87,13.88,6.72,1.98.31,3.81,1.55,5.74,2.37.19.85.37,1.68.55,2.52,1.97.11,2.43-1.7,3.78-2.79.02,2.29.35,4.21,2.35,5.54.76-1.67,1.44-3.37,3.75-4.23-.59,1.98-1.07,3.61-1.47,4.96,1.11.51,2.43.7,2.89,1.43.88,1.38-1.11,1.85-1.51,3.13,1.47,1.38,1.26,3.28,1.1,5.31-.4-.15-.78-.3-1.38-.52-1.27,2.31-2.56,4.66-3.94,7.17-.65-.73-1.16-1.32-1.64-1.85-.53.03-1.01.06-1.49.07-.27,0-.68-.15-.81-.02-2.42,2.47-5.22,1.89-8.06,1.06-.15-.04-.29-.13-.57-.27-.64-3.56-3.69-4.51-6.67-5.88.05.58.08.92.12,1.26-1.51-.17-3.68-1.53-5.39-3.35q2.37-.02,3.47-.96c-2.6-.97-5.04-2.13-7.69-1.05-1.63-1.1-.91-3.91-3.49-3.93v-1.87c-.85-.3-1.66-.62-2.49-.86-2.49-.74-4.67-1.97-6.71-3.59-1.35-1.07-3.02-1.76-4.55-2.61-1.93-1.08-3.87-2.15-5.67-3.64-.38.07-.78.08-1.13.22-1.19.47-2.03.04-2.63-.98-.83-1.42-1.91-2.12-3.68-2.16-.99-.02-2.04-.82-2.92-1.47-1.43-1.07-2.76-2.24-4.74-1.64-2.5-1.49-5.78-.21-8.14-2.28-.25-.22-.75-.28-1.12-.25-1.91.17-3.42-.7-4.8-1.83-.98-.8-2.05-.97-3.28-1.13-3.79-.51-7.59-1.09-11.3-1.98-4.22-1-8.38-1.89-12.78-1.42-2.97.32-5.9-.17-8.62-1.81-1.26,1.1-2.56,1-3.83-.01-.44-2.97-.57-3.07-2.87-2.23-.05.65.14,1.5-.2,1.9-.53.62-1.38,1.24-2.16,1.32-1.65.17-3.33.02-5-.04-1.39-.05-2.87-.68-3.93.88-.16.23-.74.21-1.13.22-1.75.02-3.51,0-5.15,0-3.03-3.62-3.28-3.65-6.67-.66-1.09.96-2.16,1.76-3.52.46-1.85.56-3.56-1.04-5.41-.34-.5.19-1.03.42-1.4.78-1.18,1.18-2.61,1.81-4.21,2.12-1.8.35-3.6.74-5.41,1.04-.5.08-1.14.07-1.56-.17-1.71-.97-3.21-.63-4.66.51-.63.49-1.26,1.03-1.97,1.35-.81.37-1.72.53-2.87.87.27-.81.41-1.21.54-1.62-.07-.06-.15-.12-.22-.18-.71.92-1.41,1.83-2.04,2.65-1.35-.51-2.22-.84-3.3-1.25.05.89.09,1.57.13,2.41-2.37.55-4.75.18-7.09.24-2.29.07-4.58.01-7.36.01.88.95,1.39,1.5,1.98,2.13-.6.78-1.51.79-2.29,1.01-2.08.58-4.19,1.02-6.25,1.66-.97.3-1.86.91-2.76,1.41-.35.19-.67.67-.98.65-3.01-.22-5.11,2.07-7.79,2.75-.39,2.33-1.59,2.85-4.56,1.87-1.33,2-2.68,4.05-4.05,6.08-.55.81-.92,1.6-2.3,1.63-1.03.02-2.15,1-3.03,1.77-1.26,1.11-2.63,1.42-4.21,1.18-.71-.1-1.43-.17-2.15-.2-1.04-.04-1.8.42-2.41,1.28-1.82,2.56-2.43,2.72-5.37,1.66-.75-.27-1.5-.54-2.46-.88-.12,2.18-1.53,2.95-3.56,3.12.58,3.02-1.72,4.24-3.61,6-.15-.4-.26-.7-.45-1.21-1.62.96-3.21,1.9-5.11,3.02.22,1.93-1.27,3.21-3.41,4.3,1.79.71,1.81,1.82,1.46,3.13-1.88.41-3.79.83-5.81,1.27-.17-.52-.31-.95-.48-1.45-.7.36-1.39.71-2.21,1.14-1-1.6-2.59-1.5-4.46-1.38.33-1.45.62-2.69,1.02-4.43.78,1.48,1.28,2.44,1.89,3.6.42-1.12.56-2.19,1.15-2.87.63-.72,1.69-1.06,2.71-1.65-.36-.82-.72-1.66-1.16-2.68-.2.66-.33,1.07-.47,1.51-1.09.05-1.52-.57-1.68-1.41-.15-.83.34-1.55,1.56-2.43-.12-2.04-.24-4.1-.36-6.06q1.88-1.44,1.58-4.76c1.8-2.15,3.46-4.14,5.27-6.31-.71-.18-1.2-.31-1.7-.44,1.34-2.28,1.47-2.26,3.83-1.88.94.15,1.97-.23,3.13-.39-.43-2.57,1.26-3.69,2.59-5.18,1.42-1.6,2.94-2.53,5.02-2.5.39-4.69,2.73-4.99,7.89-5.82.19-1.06.04-2.4.64-3.06.78-.86,2.11-1.36,3.29-1.7,1.68-.47,3.47-1.01,5.16-.87,2.31.2,4.53,1.08,6.93.97.43-.02.9,1.12,1.41,1.8.62-.73,1.23-1.45,1.89-2.24.62.12,1.22.23,2.16.41-.37-.69-.64-1.19-.99-1.85,1.72-.5,3.32-.96,4.91-1.44,1.32-.4,2.31-1.1,3.23-2.24,1.06-1.32,2.71-2.16,4.36-3.41.59,1.16,1.1,2.18,1.82,3.6.49-1.62.86-2.88,1.35-4.5.36.9.59,1.46.79,1.95.89,0,1.77-.05,2.65.02.86.07,1.71.26,2.65.41.57-1.46,1.63-2.03,2.92-2.6,2.7-1.2,5.28-2.73,5.82-6.1.06-.38.28-.74.58-1.48.36.98.62,1.67.86,2.32.95.48,1.91.95,3.05,1.52.12-.18.38-.45.5-.78.5-1.43,1.64-2.14,2.97-2.56,1.06-.34,2.16-.58,3.26-.8,1.81-.35,2.15-.09,2.58,1.8.05.21.12.41.27.9,1.65-1.33,3.16-2.57,4.79-3.89-.54-.59-.94-1.03-1.35-1.47.19-.15.33-.33.39-.3.97.34,1.95.68,2.9,1.08,2.38,1,2.99.77,3.89-1.48h5.61c-1.89,1.43-3.69,1.28-5.44,1.81.35.55.61,1.11,1,1.56.92,1.04,1.24,1,2.26-.09.27-.28.53-.8.8-.8,1.98-.06,3.36-1.39,5.01-2.17.56-.27,1.35-.64,1.81-.44,3.13,1.32,7.24-.8,9.51,3.16,1.6-1.7,3.07-2.54,5.14-2.16.8.14,1.74-.54,2.9-.94Z"/>
  <path class="cls-1" d="m180.03,5.94c.06-1.13.13-2.3.21-3.65.75.12,1.42.22,2.1.33.79-.83,1.57-1.66,2.48-2.61,1.16-.13,1.77.91,2.44,1.77.87,1.11,1.9,1.89,3.31,2.19,2.08.45,2.69.18,3.56-1.75.16-.35.3-.72.51-1.22,1.45.71,2.79,1.37,4.14,2.02.13,1.03.25,1.93.42,3.25,1.27-2.18.93-4.71,2.52-5.6,6.75-.09,12.84.85,19.07,2.1.09.61.19,1.27.34,2.23.58-.8,1.02-1.4,1.55-2.13.52.61.95,1.15,1.42,1.65.87.92,1.89,1.34,3.22,1.23,1.57-.14,3.16-.09,4.74-.11,1.1-.01,2.19,0,3.69,0-.58-.91-.9-1.41-1.22-1.91,1.73-.71,1.78-.67,4.3,3.16,2.5-1.02,5.09-1.74,8.21-1.42-.87.63-1.52,1.09-2.36,1.69,1.23,1.03,2.37,1.99,3.73,3.13.19-.93.31-1.51.38-1.85,2.54.4,5,.79,7.74,1.23.07.23.26.82.46,1.44.26,0,.5.04.72,0,.47-.11.91-.29,1.38-.4,2.7-.67,3.2-.48,4.82,1.9.48-.23.99-.45,1.47-.71,2.11-1.12,4.1-.94,6.09.39,1.52,1.01,3.17,1.84,4.75,2.76.62.36,1.21.75,1.82,1.13-.14.09-.28.19-.43.28,1.18.23,2.37.46,3.94.76-.99,1.19-1.73,1.85-3.18,1.59.32.74.58,1.34.96,2.19.66-.83,1.14-1.43,1.72-2.15,2.01,1.25,4.16,1.33,6.42.93,1.73-.31,4,.96,4.6,2.67.69,1.95,2.83,2.5,3.71,4.23.13.26.89.22,1.36.27,1.43.17,2.86.31,4.42.48.36,1.84,1.44,2.94,3.28,3.01.83.81-.13,2.51,1.76,2.74.24-.6.5-1.25.76-1.89.41-.99,1.14-1.25,2.14-.94,1.37.43,3.7,2.67,4.54,4.51-.76-.05-1.43-.09-2.14-.13.93,2.04.94,2.01,2.77,2.26,2.93.4,5.51,1.62,7.74,3.53.98.84,1.64,1.77,1.29,3.33-.18.79.58,1.86,1.09,2.7.35.59.99,1,1.6,1.59.61-.4,1.45-.95,2.57-1.69.31,1.45.56,2.65.88,4.19-1.45-.61-2.53-1.07-3.75-1.58-.47.4-.99.84-1.57,1.32.91,1.8,1.8,3.57,2.79,5.54-1.16.49-2.22.95-3.38,1.45,0,.67.06,1.37-.01,2.07-.18,1.72-1.18,2.54-2.79,1.95-1.64-.6-2.91-.43-4.17.73-.69.63-1.64,1.52-2.5.69-.96-.93-2.36-1.8-2.03-3.53.09-.47.21-.93.39-1.66-3.16-.18-5.85-1.12-6.75-4.71.37-.2.87-.48,1.57-.87-1.15,0-2.01-.05-2.87,0-3.14.24-5.81-.8-8.11-2.89-.71-.65-1.33-1.4-2.1-1.97-.69-.51-1.51-.83-2.37-1.29,1.21-3.02-2.64-2.65-3.24-4.63-.24-.07-.47-.15-.71-.22-.38.69-.76,1.38-1.03,1.87-2.21-.22-4.11-.39-6.02-.61-1.95-.22-3.8-.76-5.08-2.37-.64-.81-1.4-.92-2.31-.91-1.51.03-3.03,0-4.71,0-.51-1.83-2-2.36-3.6-2.74-1-.24-2.04-.32-2.28-1.72-.06-.34-1.03-.57-1.61-.76-1.03-.34-2.39.04-2.9-1.44-.06-.19-.73-.2-1.13-.24-1.96-.21-3.99-.17-5.88-.39-2.83-.34-5.94-.68-8.17-3-.16-.16-.38-.26-.9-.6-.39.65-.8,1.34-1.1,1.85-1.47-.27-2.63-.08-3.19-1.47-.14-.36-1.09-.49-1.68-.55-3.1-.33-6.21-.53-9.3-.91-1.89-.23-3.77-.61-5.61-1.09-.72-.19-1.32-.84-1.99-1.26-1.24-.79-2.49-1.58-3.73-2.37-.17.21-.34.41-.52.62.58.2,1.16.41,1.73.61-.12.19-.24.38-.36.56-.26.11-.52.3-.77.31-3.84.03-7.68.03-11.52.03-4.56,0-9.12,0-13.68,0-1.02,0-2.12-.19-2.74,1-.09.18-.42.41-.58.37-1.79-.45-3.83-.58-5.3-1.55-1.75-1.15-1.53-1.47-3.36-.42-.27.16-.55.3-.89.48-.5-.28-.99-.53-1.47-.8-.48-.27-.95-.54-1.75-1.01,0,.81.1,1.34-.03,1.82-.16.59-.38,1.43-.81,1.62-1.92.85-3.74,1.97-6.1,1.29-4.05-1.17-8.23-.97-12.38-.56-.2.02-.37.23-.61.37.27.32.5.58.97,1.13-2.69-.3-4.59-1.81-6.91-2.59-.27.83-.53,1.64-.85,2.66-.85.21-1.83.45-3.24.8,1.15-2.18.09-3.23-1.8-4.47.48,1.04.76,1.62,1.08,2.31-1.53.85-2.78,2.23-4.9,1.66-.48-.13-1.5.65-1.83,1.25-.71,1.27-1.73,1.55-2.99,1.52-1.52-.04-3.04-.09-4.56-.11-3.67-.05-4.89.36-7.77,2.59-.72-.08-1.47-.16-2.23-.24-.06.12-.12.25-.19.37.85.62,1.69,1.24,2.66,1.96-.88,1.2-2.25,1.65-3.51,2.47-.44-.62-.83-1.18-1.29-1.82-.68.07-1.38.14-2.06.21-.12.54-.22.96-.36,1.58-.8-.48-1.45-.88-2.29-1.39-.08.73-.13,1.25-.19,1.78-.13,0-.31.07-.39.01-1.19-.93-2.44-1.35-4.02-1-.88.19-1.88-.12-3.01-.23-.29.64-.64,1.34-.93,2.06-.65,1.59-1.59,2.81-3.13,3.77-1.22.76-2.04,2.17-2.99,3.25-2.01-.13-4.03-.26-6.05-.4-.47-1.41-.9-2.76-1.37-4.1-.81-2.33-.74-2.65,1.24-4.44-.98-.24-1.88-.46-3.01-.74,1.24-1.05,2.05-2.22,1.03-3.99,1.4-.13,2.55-.24,3.9-.37.95-2.26,2.42-4.38,2.72-6.97.13-1.14.9-1.66,1.86-1.94,1.3-.37,2.63-.66,3.96-.95,1.06-.23,2-.6,2.48-1.66.43-.94,1.18-1.23,2.15-1.12,1.45.16,2.6-.42,3.72-1.32.78-.62,1.77-.98,2.9-1.59.05-.41.14-1.1.25-2,.92.27,1.8.52,2.87.83-.09-.43-.16-.75-.24-1.17.88-.54,1.63,0,2.39.34,1.09.5,2.17,1.02,3.23,1.57,1.12.58,1.72.14,2.31-.86.93-1.57,1.87-3.16,3.04-4.54,1.1-1.29,1.43-1.25,2.76-.14.88.74,1.7.74,2.65.32,1.02-.45,2.04-.88,3.15-1.35-.32-.44-.61-.85-1-1.38,4.95-3.26,9.96-3.2,15.3-.87.32-2.48,1.9-2.99,4.04-3.04,2.38-.06,4.76-.54,7.14-.71,1.08-.08,2.11.02,3.18.66,1.59.96,2.72.08,2.65-1.75-.05-1.23.46-1.76,1.86-1.8,1.1-.04,2.2,0,3.33,0,.56,1.67-1.95,2.38-1.11,4.32.97-.24,1.96-.42,2.9-.72,1.34-.43,2.51-.46,3.37.89.55.87,1.3.71,2.24.31Z"/>
  <path class="cls-1" d="m447.43,320.9c.6.22,1.09.41,1.7.63-.69,1.61-1.36,3.18-2.08,4.88-.49-.31-.99-.63-1.56-.99-1.17,1.71.53,2.27,1,3.05-.16.75-.57,1.48-.37,1.93.94,2.02.37,3.52-1.24,4.87-.74.62-1.18,1.37-.97,2.52.33,1.79-.11,2.36-1.84,3.07-.51.21-1.06.35-1.21.41-.8.95-1.24,1.93-1.98,2.26-1.44.65-3.12,1.2-4.63.46-.79-.39-1.25-.35-1.9,0-1.41.76-2.85,1.44-4.24,2.23-.81.46-1.48.41-2.2-.15-.74-.58-1.16-1.19-1-2.24.18-1.14.07-2.33.13-3.5.02-.43.04-.95.28-1.26.71-.92.86-1.91.51-2.94-.86-2.53-.57-5.04,0-7.67,1.7-.71,4.64.78,5.03-2.77-1.28.05-2.26-.37-2.78-1.72-.76-1.94-1.84-3.8-.8-5.94.63-1.29,1.4-2.51,2.06-3.79.44-.84.8-1.73,1.28-2.79-.66-.05-1.14-.09-1.99-.16,1.41-1.19,1.14-2.53.94-3.87-.12-.79-.28-1.57-.37-2.37-.31-2.69-.13-3.06,2.15-4.56-.53-.4-1-.8-1.52-1.13-.46-.29-.98-.49-1.61-.81-.07-1.22-.14-2.47-.22-3.89.79-.06,1.37-.11,2.12-.16.56-1.23,1.15-2.53,1.72-3.79q-1.69-2.97.1-4.41c-.73-1.02-1.46-2.04-2.28-3.18-.51.46-.89.8-1.33,1.2-.02-2.6.56-3.33,3.82-4.56-1.38-.67-2.53-1.22-3.82-1.85,2.27-2.97-.3-4.51-1.77-6.37q1.89-.9,2.65-2.42c-1.26-.89-2.51-1.77-3.99-2.82.41-1.19.87-2.55,1.33-3.91.16.04.32.08.48.11v3.17c.11.04.23.09.34.13.32-.54.64-1.09.98-1.66.22.15.46.31.79.53,0-1.08.03-2.1,0-3.11-.1-2.4-.29-2.79-1.95-4.16-.48.57-.95,1.13-1.84,2.19-.27-1.75-.6-2.96-.61-4.17-.02-1.99.27-3.99.24-5.99-.01-.89-.48-1.77-.99-2.62,1.31-3.28,2.35-6.55-1.23-9.2.33-.45.55-.75.84-1.14-.35-.24-.65-.49-.99-.67-2.12-1.11-3.13-2.86-3.16-5.24-.02-1.36-.13-2.71-.18-4.07-.06-1.62-.24-3.16-1.39-4.47-.38-.43-.58-1.14-.61-1.73-.2-3.63-1.26-7.06-2.39-10.48-.98-2.96-1.91-5.93-2.77-8.92-.32-1.11-.36-2.29-.55-3.62-.29-.08-.9-.26-1.56-.45-.25-.87-.52-1.7-.73-2.55-.52-2.09-.57-4.23-1.6-6.29-.97-1.94-1.04-4.32-1.53-6.5-.16-.74,0-1.67-1.04-1.97-.12-.04-.31-.2-.29-.29.28-2.11-1.5-4.18-.09-6.19-.7-1.65-1.68-1.15-2.8-.19-.07-.96-.16-1.57-.16-2.18-.02-2.24-.06-4.48.01-6.72.05-1.51-.21-2.72-1.43-3.82-1.58-1.43-2.46-3.33-2.59-5.51-.09-1.44-.75-2.47-1.88-3.43-1-.85-1.71-2.07-2.4-3.22-.85-1.42-1.55-2.93-2.31-4.4-.04-.07-.12-.14-.11-.21.21-2.25-1.71-3.01-2.94-4.27-3.48-3.57-3.77-7.94-3.07-12.53.08-.55.68-1.02,1.16-1.71-1.35.15-2.54.28-3.74.42-.1-.15-.2-.3-.3-.45.69-1,1.37-2.01,2.26-3.3-1.04.29-1.87.53-2.95.83-1.12-1.48-2.3-3.03-3.58-4.71,1.07-.62,2.91-.33,2.16-2.4-1.61.75-2.83-.12-3.77-1.15-1.33-1.46-2.56-3.06-3.57-4.75-.92-1.55-1.5-3.32-2.23-4.99.48-.32.81-.53,1.32-.86-1.33-2.38-2.67-4.78-4.07-7.29-.9.63-1.59,1.12-2.33,1.64-2.18-1.41-1.35-3.17-.65-4.92-1.01-.24-1.96-.38-2.85-.7-2.03-.72-2.61-2.09-1.98-4.14.28-.92.32-1.92.51-3.16.19-.08.69-.3,1.24-.55-.13-.18-.21-.4-.37-.52-.67-.5-1.36-.74-2.23-.42-.67.24-1.4.35-2.12.39-1.15.07-1.83-.47-1.6-1.53.51-2.3-.75-4.15-1.24-6.55-.5.58-.8.94-1.3,1.53-.81-.59-1.74-1.25-2.79-2.01.75-.36,1.32-.63,2.01-.96-.75-1.98-1.48-3.91-2.21-5.84.21-.09.41-.18.62-.27.61,1.24,1.21,2.49,1.86,3.81.42-.33.75-.8,1.14-.85,3.32-.41,5.64-2.92,5.71-6.27.12-.1.24-.26.37-.28.54-.09,1.09-.15,1.81-.24-.1.5-.17.86-.26,1.31,1.12.32,2.24.64,3.59,1.03-.36.66-.64,1.17-1.02,1.86,2.5,1.37,5.23,2.67,5.94,6.02-.36.33-.74.69-1.28,1.19.43,0,.7.08.84-.01.84-.6,1.65-1.23,2.58-1.94,1.57,1.79,2.08,3.75,1.42,6.15,2.52.26,3.54,1.8,4.33,3.89,1.04,2.74,3.28,4.69,5.28,6.75,1,1.03,2.07,1.95,1.38,3.72-.19.48.44,1.65,1,1.97,2.64,1.51,2.84,4.24,3.83,6.95-.89-.13-1.53-.23-2.56-.38,1.08,1.41,1.99,2.6,3.01,3.94,2.47-1.58,4.29-.61,5.93,1.38-.09.79-.24,1.65-.29,2.51-.12,2.22.53,2.9,2.72,2.92.16,0,.32-.05.48-.05,1.48.02,2.11.94,1.6,2.35-.5,1.39-1.71,1.79-3.16,2.05-.33,1.72-.66,3.42-.92,4.75.62.92,1.07,1.57,1.62,2.39.42.06,1.11.16,2.02.3-.86,1.39-.46,2.42.51,3.46.85.92,1.11,2.09.63,3.52,2.1.99,3.58,4.2,6.82,1.56q-.39,1.2-3.57,2.98c-.29,1.88.82,3.09,2.18,4.14,1.65,1.28,3.39,2.46,3.96,4.75.46-.38.78-.65,1.16-.97.5,2.76,2.09,4.81,3.59,6.93.91,1.29,1.78,2.61,2.57,3.98.79,1.37,1.46,2.81,2.22,4.27-.74,2.25-1.51,4.59-2.33,7.1-.94-.19-1.91-.39-3.4-.7.6.67.82,1.02,1.13,1.24.72.5,1.46,1,2.25,1.37,4.04,1.91,5.42,5.36,5.76,9.88-.77-.74-1.3-1.24-1.84-1.76-.62,1.4-.19,2.59,1.1,3.2,1.13.53,2.03.15,2.7-1.15.18-.35.29-.74.46-1.1.17-.35.37-.69.98-.9-.42,1.43-.72,2.9-1.27,4.28-1.68,4.23.18,7.92,1.57,11.72.54,1.48,1.95,1.1,3.1,1.58-.4,1.74-2.35,1.46-3.27,2.71h2.56v5.78c.82-.23,1.38-.39,2.05-.58,1.45,4.86.52,9.75.14,14.84.9-.06,1.65-.12,2.58-.18.57,1.1,1.18,2.27,1.79,3.44-.11.08-.21.17-.32.25-.57-.35-1.13-.71-2.21-1.38,1.75,3.66,2.03,7.13,2.46,10.57.07.53.37,1.05.63,1.53,1.34,2.43,1.97,5.04,2.18,7.78.06.7.06,1.48.37,2.09,1.28,2.51,1.53,5.19,1.47,7.93-.03,1.44.03,2.76,1.04,4.02.57.71.58,1.95.66,2.97.13,1.63.34,3.14,1.7,4.32.37.32.44,1.11.47,1.69.03.76-.11,1.52-.19,2.37h-1.75c-.28.93.67,1.83,1.91,1.89.34,1.53-1.35,1.55-1.96,2.61,1.28,1.54,2.59,3.12,4.07,4.91-1.13.3-2.08.55-3.33.88.81.24,1.31.39,2.05.61-.15,1.65-.3,3.29-.46,4.94-.08.87-.2,1.75-.28,2.62-.12,1.35.08,2.45,1.48,3.2,1.36.73,1.66,2.1,1.31,3.55-.21.85-.62,1.65-.83,2.5-.22.91-1.06,1.93.31,2.7.13.07.1.45.15.68.67,3.2,1.41,6.39,2,9.6.29,1.62.32,3.28.48,5.1-.85-.09-1.36-.15-1.87-.21-.09.13-.17.26-.26.38.62.65,1.18,1.36,1.87,1.92,2.47,2,2.66,3.62.61,6.07-.56.67-1.19,1.28-1.87,2Z"/>
  <path class="cls-1" d="m393.68,331.77c1.3-.82,2.64-1.66,4.4-2.78-.94-.14-1.43-.21-2.07-.31.4-1.47-.02-2.64-1.67-3.29.26-1.08.45-2.08.74-3.05.49-1.6,1.09-3.17,1.55-4.78.53-1.87.68-3.67-.33-5.56-.46-.86-.19-2.15-.12-3.24.24-3.98.57-7.96.79-11.94.05-.94-.1-1.92-.27-2.86-.24-1.28-.41-2.5.28-3.72.26-.46.39-1.08.36-1.62-.18-3.1-.3-6.21-.69-9.29-.23-1.82-.7-3.57-.2-5.43.22-.81.3-1.9-.08-2.57-.82-1.45-.66-2.9-.63-4.41.15-5.85-.35-11.66-1.36-17.42-.68-3.9-2.1-7.54-4.31-10.83-.56-.83-.74-1.6-.61-2.66.16-1.39-.14-2.84-.3-4.25-.11-.95-.48-1.89-.45-2.83.08-2.38-.26-4.61-1.63-6.62-.13-.19-.24-.44-.24-.66-.03-3.27-1.77-5.92-3.13-8.71-1.26-2.6-2.39-5.18-2.16-8.22.08-1.09-.54-2.3-1.07-3.35-.5-.98-1.27-1.84-1.98-2.7-1.29-1.56-2-3.14-.3-4.83-1.19-2.36-2.99-4.43-2.08-7.11-.55-.42-1.3-.69-1.42-1.13-.52-1.9-1.15-3.85-1.18-5.79-.04-2.17-.53-3.95-2.25-5.26-1.57-1.2-2.16-2.87-2.61-4.7-.82-3.33-1.71-6.64-2.65-9.93-.24-.82-.71-1.62-1.24-2.29-1.13-1.43-1.77-3.02-1.93-4.82-.13-1.46-.59-2.67-1.75-3.77-1.07-1.01-1.78-2.43-2.51-3.75-1.08-1.95-2.08-3.96-3.04-5.97-.3-.63-.48-1.35-.57-2.05-.26-1.83-1.14-3.21-2.46-4.51-1.16-1.15-2.28-2.56-2.82-4.07-1.24-3.44-2.13-7.01-3.13-10.54-.19-.68-.18-1.41-.29-2.28.88-.25,1.69-.48,2.5-.71q-.45-1.8,2.06-3.34c.99.7,2.03,1.43,3.06,2.17.59.43,1.27.58,1.69-.06,1.1-1.68,2.6-1.57,4.25-1.2.69.16,1.43.15,2.3.23.18.43.45.91.59,1.42.35,1.22.56,2.37,2.13,2.85,1.57.48.61,1.86.53,2.73.97,1.06,2.14,1.9,2.66,3.04.53,1.17.41,2.63.65,4.5.83-1.05,1.34-1.7,1.97-2.5,1.75.8,3.11,2.13,4.26,3.63,1.8,2.35,3.54,4.74,5.14,7.22.47.73.55,1.81.55,2.72,0,.86-.25,1.75-.54,2.57-.42,1.17-.28,2.09.53,3.08,1.37,1.67,1.69,3.75,1.98,5.82.26,1.81.58,3.6.87,5.4.17.04.33.07.5.11.43-.84.86-1.67,1.45-2.82,1.39,2.24,2.65,4.25,3.96,6.36-.54.61-1.05,1.18-1.72,1.93.65.19,1.14.33,1.74.5-.58.39-1.12.75-1.93,1.28,1.64,1.14,1.83,2.36,1.67,3.85.79-.15,1.38-.27,2.22-.43,1.21,3.12,2.44,6.29,3.65,9.41-.49.57-.94,1-1.3,1.51-1.44,2.02-1.37,2.19.54,3.83.43.36.71.99.87,1.55.48,1.68.82,3.33,2.5,4.46.58.4.49,1.8.7,2.71-3.25.91-2.95,2.11-2.16,5.01.79-.5,1.53-.97,2.6-1.64-.19,3.6,1.67,6.29,2.6,9.28.12.38.27.76.36,1.14.61,2.6.2,3.23-2.75,3.75,1.08,1.24,2.03,2.33,3.37,3.86.21-1.7.35-2.87.53-4.39,1.1,1.16,1.41,2.29,1.62,3.43.43,2.27.89,4.54,1.15,6.83.18,1.56.04,3.15.05,4.73,0,.71-.05,1.42.06,2.11.05.28.53.75.71.71,1.03-.24,1.08.49,1.11,1.1.13,2.54.24,5.09.27,7.64.02,1.43-.14,2.87-.17,4.31,0,.34.21.68.45,1.37.7-1.13,1.22-1.95,1.74-2.78.62,4.18,2.28,8.18,1.15,12.46-.22.84.13,1.87.36,2.78.29,1.16.75,2.27,1.09,3.42.8,2.66.29,4.89-2.18,6.47-.18.11-.28.35-.55.69,1,.09,1.84.17,2.74.25.11.8-.72,1.68.25,2.38.12.09-.05.76-.23,1.08-1.05,1.84-.29,3.16,1.27,4.49.29-.43.52-.77.75-1.12.11.1.29.19.31.3.23,1.84.56,3.74-1.64,4.75-.13.06-.23.2-.48.43.81,1.39,1.64,2.81,2.64,4.52-.98-.05-1.63-.09-2.58-.14.26.9.31,1.85.79,2.47.39.5,1.29.6,2.28,1.01.18,1.53.41,3.42.67,5.63-1.23-.13-2.28-.24-3.67-.39.44,1.84.85,3.57,1.31,5.48.83-.19,1.55-.35,2.24-.51.77,1.19.26,2.09-.34,2.97-.45.66-.97,1.27-1.39,1.95-.59.98-.88,1.97-.56,3.19.23.86.04,1.82.04,2.97,2.64.92,1.2,3.27,1.48,5.35-.98-.29-1.79-.53-2.73-.81v2.04c.83-.09,1.57-.17,2.63-.29-.32.71-.56,1.16-.72,1.63-.09.28-.15.64-.06.91.73,2.22.73,3.35-.72,5.49-1.23,1.81-1.32,3.63-.99,5.7.41,2.51.65,5.06.79,7.61.11,1.97-.62,3.75-1.79,5.35-.42.57-.76,1.21-1.05,1.87-1.02,2.38-1.09,2.44-3.83,2.46.11.46.22.89.33,1.32-4.34,2.36-7.39,3.41-9.44,3.12.58-1.17,1.12-2.27,1.67-3.38q-3.73-.45-4.91-1.95c.72-1.33,2.77-2.3,1.79-4.23-.71-1.39-1.79-2.6-2.85-4.1Z"/>
  <path class="cls-1" d="m234.88,610.66c-.87-.45-1.75-.9-2.84-1.47-.4,1.12-.69,2.73-2.2,2.82-1.27.08-2.58-.41-3.96-.67-1.19.4-2.56.95-3.98,1.31-1.7.43-3.43.79-5.16.97-.8.08-1.65-.36-2.69-.62-.25.38-.68,1.04-1.23,1.88-1.21-1.18-2.33-2.28-3.44-3.37-.14.07-.28.15-.43.22.21.57.42,1.15.7,1.93-1.26.66-2.57,1.34-4.12,2.15-.1-1.02-.18-1.82-.27-2.77-.79-.09-1.56-.18-2.59-.3.39.85.68,1.46.95,2.06-.12.15-.21.34-.31.35-1.9.22-3.81.6-5.7.55-1.25-.03-2.96,0-3-2.13,0-.28-.69-.59-1.1-.81-.98-.52-1.98-1-3.17-1.6,1.45-1.87.66-4.58,2.8-6.01.7-.46,1.47-1.02,2.26-1.1,1.92-.21,3.51-.97,4.99-2.13,1.88-1.48,3.68-3.14,6.32-3.08.15,0,.33-.06.45-.15,1.27-1.08,2.5-2.2,4.4-1.26.25.12.89-.31,1.22-.62,1.45-1.36,3.56-2.15,3.93-4.5.05-.33.65-.58.99-.86-1.4-2.2-2.32-2.73-4.56-2.18-2.36.58-4.68,1.21-6.63,2.95-1.75,1.55-4.06,2.24-6.42,2.39-1.51.1-3.09.25-4.54-.07-2.15-.48-3.94.14-5.7,1.15-1.73.99-3.42,2.06-5.15,3.07-2.37,1.39-4.84,2.4-7.65,2.56-2.34.13-4.22,1.4-5.91,2.92-.46.41-.73,1.04-1.28,1.46-.47-1.34-1.06-2.04-2.43-1.76-.03.41-.05.86-.09,1.49-1.01-.28-1.72.04-2.33.96-.63.95-1.67,1.45-3.01,1.05-.12-.54-.23-1.07-.37-1.61-.57-2.28-.77-2.39-3.21-2.61-.58-.05-1.13-.42-1.55-.59-.88.54-1.78,1.1-2.93,1.81-.13-.88-.22-1.45-.35-2.31-1.04.13-2.12.22-3.18.4-1.81.31-3.6.83-5.42,1-2.15.2-4.35.33-5.6-2.14-.27-.53-1.15-.75-1.91-1.2.23-.67.48-1.39.74-2.15-.12-.18-.21-.43-.39-.55-1.13-.77-2.39-1.41-1.71-3.2.69-1.81,1.57-3.44,3.75-3.52,1.41-.05,2.84.23,4.29.36q.69-1.59-.97-2.74c.59-.24,1.05-.5,1.54-.63,1.07-.28,2.23-.4,2.46-1.81,1.89-.94,3.36-3.08,5.97-2,.47.19,1.14.2,1.62.02,3.15-1.18,6.29-.67,9.47-.2,2.44.36,4.91.59,7.38.71,1.02.05,2.21.14,2.64-1.42.2-.72,1.16-.72,1.68.07.19.29.25.67.44,1.2,1.49-.99,2.83-1.85,4.14-2.75,3.7-2.53,7.44-4.97,11.63-6.64.29-.12.78-.24.81-.43.38-2.05,2.38-2.07,3.67-2.95.79-.54,1.67-.93,2.51-1.4,1.26-.71,2.12-1.68,1.95-3.27,2.32-1.06,4.5-1.76,6.9-.33,1.06.63,6.29-.92,7.01-1.93.23-.32.38-.7.5-1.08,1.05-3.14,3.3-5.23,6.38-5.96,4.1-.97,8.32-1.48,12.5-2.11.44-.06,1.02.37,1.43.71,2.56,2.12,4.67,4.56,5.31,8.17.57-.54,1-.93,1.42-1.33.15.07.29.13.44.2-.17,1.15-.34,2.3-.55,3.76-.02-.01.34.27.76.61-2.09,3.1-3.86,6.47-7.37,8.3.94,1.6-.94,2.22-1.09,3.46-.15,1.24-.69,2.44-1.12,3.85,1.29.31,2.24,1,2.16,3.02.81-1.16,1.29-1.85,1.86-2.67.59.21,1.23.43,2.03.72.38-.51.78-1.05,1.24-1.66,2.12.29,3.98-.38,5.11-2.26.7-1.16,1.6.07,2.25-.48.66-.55,1.27-1.25,2.04-1.54.34-.13,1,.58,1.84,1.11-.47-1.11-.84-2-1.2-2.85,1.41-1.72,1.73-1.83,3.41-1.17.3.12.57.29.87.41,2.03.83,2.77.71,3.67-1.25.81-1.78,2.09-2.42,3.87-2.72,1.72-.3,3.72.23,5.03-1.61.19-.26,1.21,0,1.82.12,2.21.44,4.1.18,5.47-1.89.53-.8,1.3-1.26,2.43-1.21,1.57.06,2.13-.56,2.35-2.07.06-.39.02-.8.03-1.2.06-2.28.7-3.21,2.74-3.96.57-.21,1.05-.51,1.73.08.42.37,1.32.19,2.22.28.16.55.37,1.28.61,2.08.53-.72.91-1.59,1.57-2.02.69-.45,1.66-.47,2.81-.75-.14.56-.23.95-.38,1.55.66.14,1.33.24,1.97.43,1.56.46,2.61,1.39,3.07,3.04.48,1.77-.46,3.05-1.54,4.02-.64.57-1.91.42-3.26.66,0,1.09,0,2.33,0,3.56-.01,1.36.1,2.78-1.5,3.47-.18.08-.33.34-.4.55-1.23,3.3-3.87,4.2-7.06,4.2-.24,0-.47.02-.91.04-.18.84.98,2.07-.94,2.74-.19-.42-.49-1.08-.87-1.94-.92,1.02-1.44,1.59-2.04,2.26,1.18,1.39.81,2.51-.5,3.46-.19.14-.42.35-.45.55-.37,2.58-2.61,2.91-4.44,3.72-.95.42-1.91.81-2.97,1.25.21.45.39.84.62,1.33-2.18-.26-3.79.6-5.05,2.25-1.09,1.43-2.61,1.73-4.55,1.35-.93,3.28-3.67,4.83-6.31,6.5-1.53.97-3.18,1.79-3.69,3.85-.25,1.03-1.31,1.35-2.35,1.21-.86-.12-1.71-.34-2.67-.53-.53,1.07-1.05,2.09-1.79,3.58-1.47-2.46-1.49-4.93-2.58-7.34-2.16,1.61-4.6,2.59-6.09,5.22Z"/>
  <path class="cls-1" d="m216.88,304.59c.86-.35,1.58-.64,2.88-1.18-2.47-.16-3.54-1.59-4.83-2.71-1.17-1.02-2.11-1.97-1.95-3.8.07-.81-.85-1.79-1.49-2.54-.44-.51-1.18-.76-1.96-1.23.63-.42,1.12-.75,1.83-1.23-1.94-1.37-3.75-2.64-5.92-4.17.68-.32,1.18-.55,1.7-.8-1.88-2.47-3.98-4.06-6.37-5.19-2.81-1.33-5.74-2.41-8.59-3.65-.94-.41-2.27-.33-2.4-1.89-.02-.25-.75-.52-1.19-.66-1.91-.58-3.82-1.15-5.75-1.64-1.92-.49-3.94-.74-5.1-2.94-2.24,2.4-4.76,1.78-7.25,1.14-.59-.15-1.22-.44-1.63-.87-1.12-1.18-2.4-1.23-3.73-.61-1.73.81-3.39,1.76-5.21,2.73-.29-.78-.6-1.62-.98-2.62-.58.79-.93,1.66-1.57,2.01-.63.35-1.55.24-2.35.24-2.64,0-5.25-.04-7.73,1.22-.87.44-2.02.37-3.05.49-1.76.21-3.47.44-4.77,1.9-.38.43-1.1.63-1.7.81-2.34.69-2.34.67-2.85,2.98-1.39-.17-2.79-.35-4.39-.55-.13,1.09-.24,2.08-.31,2.68-1.27.86-2.31,1.57-3.59,2.43-.76-.59-1.65.04-2.58.71-1.23.89-2.5,1.73-3.93,2.71-1.07-1.02-2.14-2.04-3.22-3.07-.86.34-1.66.66-2.59,1.03-.28-.52-.52-.98-.81-1.52,1.08-.27,2-.5,3.03-.76.02-.48.04-.93.07-1.54-1.32-.14-2.6-.38-2.63-2.24.71-.18,1.45-.37,2.42-.62-1.5-.85-3.28-1.29-3.27-3.51.54,0,1.11.11,1.6-.03.39-.12.99-.54,1-.83.05-2.17,2.12-3.07,2.91-4.77.64-1.38,2.08-.73,3.41-.94-.45-.42-.9-.83-1.34-1.25.04-.13.04-.33.13-.39,1.42-1.03,2.89-2,4.26-3.09,1.25-.99,2.36-1.98,4.21-1.85.89.07,1.96-.64,2.76-1.25,1.51-1.15,2.96-1.68,4.83-.84,1.41.63,1.89.27,2.87-1.74-.71.18-1.26.32-1.9.49-.03-.32-.13-.7-.06-.73.91-.4,1.81-.96,2.76-1.08,2-.26,4-.33,5.39-2.12.2-.26.69-.33,1.07-.39,2.52-.45,5.03-.96,7.56-1.26,1.41-.17,2.87-.06,4.3.04,2.97.21,5.93.56,8.33-1.85.31-.31,1.05-.26,1.59-.28,2.31-.11,4.62-.18,6.94-.29,1.14-.05,2.14-.01,3.08.9.55.53,1.57.75,2.39.77,3.67.08,7.34.03,10.83.03,1.46,1.48,1.72,3.53,3.51,4.38,1.66.78,3.29,1.62,5.08,2.51.55-.23,1.28-.54,2.08-.87.52.35,1.03.69,1.62,1.09-.22.47-.4.86-.66,1.43,1.8.17,3.51.34,5.43.53-.42.59-.68.95-1.03,1.43,1.91,1.46,3.79,2.9,5.68,4.35.46-.48.82-.87,1.33-1.4.24.74.43,1.32.66,2.01h2.73c.74,1.51,1.47,3,2.26,4.61.19-.05.61-.17,1.2-.34,1.43,2.76,4.55,1.96,7.26,3.22-1.29.39-2.22.66-3.17.95.88.79,1.78,1.49,2.54,2.32.88.96,1.81,1.56,3.43.84.14,1.37.28,2.52.37,3.68.19,2.52.99,4.49,3.85,5.02,1.47.27,2.29,1.42,2.6,2.84.22,1.01.34,2.05.44,3.08.21,2.16.81,4.08,2.94,5.19-.57,1.17-1.08,2.24-1.73,3.58,1.35-.16,1.84-1.21,2.67-1.65.36-.19.91-.31,1.25-.16.55.24.55.7-.04,1.04-.08.05-.12.37-.07.41,1.64,1.13,1.02,2.87,1.15,4.5.66.26,1.31.51,2.09.82-.14.46-.3.96-.48,1.56,1.6.66,2.11,2.03,2.09,3.63-.05,3.81.54,7.68-.88,11.39-.11.29-.11.63-.16.94-.4,2.53-.21,2.93,2.21,4.54-.68,1.01-1.63,1.94-1.98,3.05-.34,1.08-.07,2.36-.07,3.76-1.9.84-1.76,2.54-1.18,4.31.42,1.28.96,2.53,1.53,4.03-1.36.82-2.83,1.7-4.38,2.63.28.71.54,1.35.79,2-3.31,1.17-4.99.28-5.25-2.7-.83.05-1.66.09-2.64.14-.08-.71-.14-1.22-.2-1.74-.14.06-.29.08-.38.17-.45.45-.84.97-1.33,1.38-1.07.9-1.89.89-2.99,0-.43-.35-.8-.78-1.18-1.19-1.25-1.32-2.62-2.18-4.65-.87-.47-1.21-.86-2.21-1.27-3.26.73-.82,1.57-1.49,2.06-2.36.48-.85.69-1.88.86-2.86.09-.5-.03-1.14-.29-1.58-1.2-1.97-2.29-4.05-3.78-5.78-1.43-1.66-2.23-3.44-2.64-5.52-.67-3.36-1.46-6.69-2.1-10.06-.21-1.08-.4-2.3-.09-3.3.74-2.38.26-4.23-1.67-5.75-.18-.14-.28-.37-.56-.74Z"/>
  <path class="cls-1" d="m359.05,475.44c-.61-1.34-.1-2.51,1.55-3.35.58-.3,1-1.02,1.37-1.61.72-1.15,1.39-2.33,2.02-3.53.32-.62.72-1.33.7-1.98-.04-1.18.27-1.88,1.59-1.81v-4.7c.7.31,1.28.57,2,.9.98-1.42,1.91-2.8,1.47-4.69-.09-.41.06-.91.21-1.33.28-.82.63-1.62.99-2.54.43-.19,1.01-.45,1.61-.72-.26-.42-.71-.8-.69-1.16.07-1.42.18-2.77,1.1-4.07.89-1.26,1.37-2.83,1.9-4.31.29-.81.31-1.73.44-2.6.6-4.23,1.52-5.24,5.7-6.25-.31-1.44-.75-2.88-.9-4.34-.29-2.86.65-5.52,1.68-8.14.61-1.55,1.37-3,1.24-4.79-.05-.71.58-1.7,1.2-2.2,1.12-.89,1.47-2.01,1.66-3.3.21-1.41.47-2.82.72-4.33h2.37c-.99-.88-1.68-1.49-2.42-2.16.52-.3.99-.56,1.72-.98-.47-1.61-1.28-3.26-1.35-4.93-.07-1.55.64-3.14,1.03-4.79.19-.02.44-.11.62-.05,2.51.93,4.83.57,7.09-.85,1.51-.95,3.22-1.37,5.44-1.02-.84,1.16-1.55,2.14-2.39,3.29.66.79,1.31,1.57,2.1,2.52.45-.38.84-.7,1.22-1.02,2.42,2.38,2.54,3.13.97,6.19q1.01.84,1.29,4.07c.58-.31,1.1-.59,1.64-.87,1.17,1.27,1.5,2.5.56,4.11-.93,1.59-.59,3.42-.28,5.16.14.78.38,1.54.64,2.58-.63-.14-1.11-.24-1.87-.4-.3.91-.6,1.84-.95,2.92.6-.13.97-.21,1.49-.33-.29,2.16-.12,4.3-1.71,6.09-.69.78-.85,2.01-1.36,2.98-1.49,2.83-3.13,5.58-4.53,8.45-1.75,3.58-3.3,7.26-4.98,10.88-.3.64-.79,1.18-1.44,2.12-.32,1.12-.79,2.71-1.2,4.31-.22.84-.31,1.72-.52,2.56-.14.57-.26,1.25-.64,1.64-.91.93-1.33,2.02-1.26,3.25.15,2.69-.85,5-2.16,7.24-.44.76-.95,1.49-1.28,2.3-.71,1.72-1.79,3-3.22,3.34-.93,1.51-1.55,2.78-2.4,3.87-1.51,1.91-1.57,2.01-.07,4.15-1.93,1.62-3.26,3.52-1.75,6.69-2.03-1.14-1.46-3.02-2.51-4.01-.75,1.34-1.75,2.6-2.17,4.04-.43,1.48-.28,3.13-.4,4.94-2.42-.85-4.58.18-7.01.85.29.73.54,1.36.87,2.2-1.32.61.01,3.6-3.04,3.03.1,1.87.19,3.66.29,5.45-.13.04-.25.08-.38.11-.31-.48-.63-.96-1.23-1.87-.63,2.43-.98,4.71-3.55,5.23-.08,1-.15,1.87-.23,2.95-.43.02-.86.05-1.45.08-.1.45-.3.97-.33,1.5-.22,3.42-1.85,6.08-4.48,8.15-1.63,1.28-3.37,2.44-5.05,3.66-.32.23-.6.5-.96.8.24,1.04.47,2.04.76,3.29-1.09.79-2.21,1.68-3.4,2.45-1.48.95-3.06,1.74-4.53,2.7-1.57,1.02-2.86,2.33-3.24,4.27-.19.98-.79,1.68-1.7,1.8-2.58.31-4.05,2.04-5.45,3.92-.23.32-.53.59-.88.97.35.71.69,1.4,1.12,2.27-1.68.63-3.28,1.22-4.93,1.83.31.67.53,1.15.8,1.74-.37-.03-.6,0-.81-.06-1.91-.51-3.81-1.1-5.74-1.53-.63-.14-1.45-.19-1.64.9-.05.3-.65.61-1.05.73-.52.17-1.1.2-1.66.22-1.48.05-2.66.48-3.05,2.11-.09.37-.35.7-.65,1.28-2.05-.97-4.04-1.9-6.11-2.87.17-2.46.14-4.79.55-7.05.29-1.59,1.16-3.09,1.81-4.61.15-.36.6-.64.64-.99.26-2.31,2.13-2.98,3.8-3.87,1.67-.9,3.31-1.84,5.1-2.84-.7-.75-1.22-1.31-2.03-2.18.88,0,1.42-.12,1.88.02,1.92.56,2.95-.38,3.78-1.96.67-1.27,1.5-2.46,2.33-3.63,1.08-1.53,2.45-2.74,4.3-3.29,1.55-.46,2.64-1.35,3.16-2.97.59-1.83,1.93-3.11,3.57-4.05,1.04-.59,2.12-1.1,3.35-1.72-.54-1.27-.13-2.37.76-3.41.51-.6.94-1.31,1.21-2.05.55-1.5,1.32-2.59,2.94-2.25.83-1.89,1.31-3.75,2.38-5.17.99-1.33,2.6-2.2,4.08-3.38-.09-.07-.4-.32-.85-.68.48-.55.98-1.12,1.56-1.8-.11-.52-.24-1.13-.3-1.43.69-.89,1.34-1.54,1.77-2.32,1.33-2.37,2.63-4.66,4.82-6.47,1.34-1.11,1.98-3.04,2.99-4.56.58-.87,1.29-1.66,2.25-2.89Z"/>
  <path class="cls-1" d="m102,380.7c.74.13,1.41.25,2.44.43-1.29-2.42-.89-4.63-.31-6.89.29-1.13.31-2.37.23-3.54-.35-4.8-.29-9.54.81-14.29.57-2.43.27-5.07.34-7.62.06-2.31.09-4.62.14-6.93.02-1.2.11-2.4.07-3.59-.14-4.54-.55-9.1,1.34-13.5-.61-.2-1.04-.34-1.61-.53.37-.17.68-.25.93-.42,1.3-.83,1.51-1.29.6-2.46-1.04-1.34-.8-2.36.1-3.65.85-1.23,1.34-2.71,2.1-4.01.46-.79,1.04-1.57,1.74-2.15,2.39-1.96,5.26-2.13,8.17-1.86.57.05,1.26.39,1.63.82,1.09,1.26,2.17,2.56,3.02,3.99.85,1.43,1.34,3.08,2.13,4.55.9,1.68,1.22,3.19-.18,4.81-.67.78-.93,1.87-1.47,2.79-.47.78-.08,2.15.11,3.23.5,2.94.54,2.93-.85,5.43.25.29.51.59.78.91-.13.2-.22.42-.38.58-1.52,1.57-1.9,3.46-1.57,5.54.14.87.3,1.73.53,2.58,1.03,3.88,1.36,7.62-2.17,10.53,1.11,1.54,2.23,2.81,2.98,4.27.4.77.15,1.88.19,2.88-.68.49-1.35.91-1.95,1.41-1.62,1.33-1.96,2.75-1.14,4.68.22.51.51,1,.77,1.49q1.22,2.27-.81,4.06c1.22-.31,2.21-.55,3.51-.88.15,1.1.28,2.12.42,3.14-.15.04-.31.08-.46.12-.19-.49-.37-.97-.76-1.98-.21,2.07-.21,3.6-.55,5.05-.31,1.28-.82,2.59-1.56,3.67-1.15,1.68-1.37,3.08-.25,4.78.52.79,1.6,1.39.56,2.56-.11.13.27.7.58,1.45-.59.32-1.29.7-1.8.98.18.68.17.96.3,1.12,2.05,2.5,1.67,4.96.06,7.51-1.12,1.77-1.66,3.66-.33,5.72-.46.23-.79.39-1.26.62.25.46.5.92.82,1.52-.4.3-.81.62-1.3.99.46.43.91.85,1.43,1.34-.26.18-.5.27-.59.44-1.1,2.08-2.36,4.11-3.22,6.29-.66,1.67.38,3.2,1.16,4.84.66-.48,1.14-.83,1.74-1.27.08.38.22.65.14.79-.97,1.72-1.97,3.43-3.26,5.64.97-.43,1.41-.62,1.92-.85,1.09,1.29.19,2.14-.78,2.96.44.21.79.38,1.4.68-.34.7-.6,1.43-1.02,2.04-1.04,1.52-1.52,3.02.01,4.55-.71.77-1.29,1.4-2.03,2.2,1.61,1.5,1.65,3.3,1.14,5.37-.26,1.05.16,2.33.48,3.45.32,1.1.95,2.12-.51,2.86-.15.08-.27.34-.3.54-.37,2.41-.67,2.81-3.04,3.87.52,1.41,1.14,2.8,1.56,4.25.52,1.83.88,3.71,1.3,5.57.14.62.2,1.26.42,1.85.67,1.8.63,2.02-.82,3.25-.31.26-.65.47-.95.73-1.58,1.32-1.53,1.7-.28,3.28.63.81.92,1.89,1.6,3.37.24-.67.45-1.29.67-1.91.21.15.42.29.63.44-.26,1.59-.53,3.18-.79,4.76,2.52,1.15,2.72,2.07,1.02,3.92-.33-.79-.7-1.66-1.14-2.73-2.34,3.97-3.57,4.44-7.73,3.22-1.16,2.27-3.27,3.11-5.54,3.6-1.24.27-2.13-.54-2.82-1.47-1.11-1.52-2.39-2.79-4.33-3.04.39-4.19,3.2-6.36,6.72-4.91-.31-1.08-.56-1.92-.85-2.94-.69.35-1.14.59-1.67.86-.48-.4-.99-.79-1.45-1.21-.66-.6-1.26-1.1-2.3-.98-.98.11-1.67-.44-1.61-1.76,1.56-.93,3.88-1.26,4.33-3.52.2-1.01-.18-2.13-.31-3.38-1.07.17-1.81.28-3.2.5,1.17-1.38,1.98-2.35,3.05-3.61-.82-.19-1.37-.37-1.94-.45-2.13-.3-2.23-.39-2.57-2.42-.14-.87-.25-1.74-.44-2.6-.34-1.52-.23-2.79,1.23-3.79.46-.32.64-1.23.71-1.9.24-2.22.36-4.45.54-6.83.78-.04,1.45-.08,2.36-.13-2.41-4.05-1.66-8.1-.45-12.14,1.04-3.47,1.56-7.01,1.52-10.63-.03-2.97.68-5.81,1.39-8.7.9-3.61,1.36-7.41,1.39-11.13.05-6.15-.41-12.3-.63-18.45-.05-1.49,0-2.99,0-4.62Z"/>
  <path class="cls-1" d="m423.05,404.75c-.8-.2-1.45-.36-2.23-.55.65-1.98,2.46-1.67,3.72-2.23.77-2.44-1.91-1.81-2.8-3.28,2.73.26,4.83-.53,5.98-2.79,1.9.26,1.85,1.81,2.56,3.07.36-.91.66-1.66,1.05-2.63,1.2,1.28,2.39.87,3.63,0,.9-.63,1.91-.89,2.91.47-.58.66-1.2,1.35-1.81,2.05-.47.54-.99,1.05-1.4,1.64-.61.89-.55,2.08.2,2.28.49.13,1.16-.37,1.96-.66.73.78,1.82,1.41,3.25.64-.46-1.2-2.28-.95-2.39-2.84,1.65.69,3.07,1.28,4.5,1.88-.09,1.67,2.69,1.59,1.9,3.63,3.1.11,4.69,1.82,5.65,4.57-.52.43-1.1.91-1.73,1.44-.56-.52-1-.94-1.64-1.53-.32.9-.74,1.62-.78,2.36-.03.61.39,1.25.69,2.07-.29.27-.73.7-1.36,1.29.62,1.43,1.29,2.94,1.94,4.44q-1.41.94-3.88.23c.73,1.36,1.33,2.49,1.93,3.63-.99,1.57-2.4,1.8-4.06,1.4.2.52.36.93.57,1.48h-3.42c1.28,1.54,2.34,2.82,3.52,4.24-1.17.71-2.21,1.33-3.64,2.2,1.53.11,2.59.19,3.77.27-1.51,1.53-3.54,1.95-5.19,1.11-1.08,2.35-1.02,4.81-.43,7.18.36,1.45,0,2.27-1.12,3.03-.52.36-1.08.75-1.42,1.26-.26.39-.46,1.24-.24,1.47.99,1.06.47,2.07.15,3.13-.62,2.04-1.1,4.04-3.21,5.34-1.66,1.02-1.79,3.1-1.97,5.12-1.37-.92-2.57-.95-3.74.34.73,1.65-.53,4.03,2.01,5.22-.55,1.39-1.05,2.63-1.68,4.21.89-.16,1.51-.28,2.19-.4-.04.24-.03.5-.13.69-.42.79-1.23,1.36-1.97.96-2.2-1.19-3.44,1.14-5.28,1.29-.64.05-.77,1.08-.18,1.8.61.74,1.19,1.51,1.71,2.31,1.09,1.7,1.28,3.35-.07,5.09-.56.72-.79,1.71-1.12,2.6-.35.94-.63,1.9-1.05,3.2-.85-2.02.92-4.04-1.15-5.64v2.98c-.87-.58-1.5-1.01-2.33-1.57-.98,2.13-.82,3.89.98,5.45-.32,1.08-.62,2.12-.98,3.34-.59-.37-.99-.63-1.51-.96.08.36.06.53.14.64,2.6,3.68,1.86,3.63-.4,6.31-.57.67-1.1,1.36-1.75,2.17-.92-.49-1.78-.61-2.62.32-.94,1.05-2.07,1.94-3.46,3.21h3.7c-.61.82-1.03,1.36-1.41,1.92-.66.97-1.99,1.65-1.33,3.21.08.2-.23.57-.38.85-1.25,2.22-2.51,4.44-3.94,6.97-.52-1.52-1.62-1.73-2.79-1.8-1.01-.06-1.92.08-2.6,1.3.74-.11,1.34-.2,2.29-.34-.74,1.65-1.36,3.05-2.07,4.63.59.03,1.02.05,1.58.08-.1,1.81-.96,2.93-2.79,3.3-.07,1.16-.13,2.26-.19,3.36-3.45-.04-3.48-.04-3.93,3.33-.27,2.01-1.38,3.53-2.62,5.02-1.05,1.26-2.02,2.6-3.2,4.12-1.25-.2-2.88-.46-4.71-.75-.17,1.3-.33,2.45-.51,3.82-2.07.43-3.34,3.47-6.52,1.87,1.35-.77,2.41-1.38,3.48-2l-.13-.37c-1.13.22-2.27.45-3.4.66-2.38.44-2.94.18-4.09-1.83-1.19-2.08-2.46-4.12-3.56-6.24-1-1.93-1.61-3.99-1.04-6.43.5.17.9.3,1.48.49,1.29-1.52,2.62-3.08,4.04-4.77-.7-.6-1.28-1.11-2.36-2.04,2.21.11,3.88.2,5.84.3-.97-1.35-2.57-1.41-3.74-2.64.7-.17,1.18-.43,1.61-.36,2.8.44,4.43-1.21,5.99-3.14.53-.66,1.33-1.1,2.4-1.95,1.52-3.93,1.74-4.09,7.34-4.87-.82-.99-1.57-1.88-2.47-2.96.69-1.05,1.39-2.08,2.05-3.15.83-1.34,2.06-2.48,2.04-4.23,0-.21.15-.48.32-.63,1.44-1.28,1.82-2.87,1.58-4.82.41.62.82,1.25,1.36,2.08.92-1.03.92-2.2,1-3.33.17-2.29.83-4.27,3.4-5.01-.12-2.9,1.27-5.13,2.84-7.28.62-.86,1.22-1.7.61-2.84-.14-.26-.17-.65-.08-.94.51-1.75.87-3.59,1.67-5.19.65-1.29,1.75-2.42,2.86-3.39,1.54-1.35,2.01-2.82,1.14-4.72.45-.39.86-.74,1.35-1.16-.24-.65-.48-1.28-.75-2.01,2.85-.84,3.81-2.96,3.93-5.67.04-.88.15-1.75.2-2.63.09-1.62.56-2.92,2.31-3.54.49-.18.91-1.04,1.03-1.66.45-2.17.77-4.38,1.17-6.8.81.49,1.45.88,1.96,1.19-.26-1.86-.39-3.82-.84-5.71-.22-.95-1.01-1.76-1.65-2.8.88-.65,1.81-1.34,2.76-2.04.37-1.77-1.96-4.37,1.77-5.09-.67-.53-1.15-.91-1.83-1.45.55-.23.88-.36,1.33-.55,0-.63.11-1.35-.03-2.01-.11-.53-.53-1-.98-1.78.61-1.22,1.38-2.76,2.34-4.68.4,1.13.66,1.89,1.1,3.13.21-1.42.35-2.4.53-3.66.84.68,1.49,1.2,2.25,1.82,1.24-2.53-.23-4.76-.15-7.29-1.33.44-2.43.8-4.03,1.33.99-2.25,1.82-4.16,2.72-6.2Z"/>
  <path class="cls-1" d="m11.73,169.83c-.22-1.03-.49-2.35-.79-3.79.98-.33,1.85-.63,2.79-.96.17-.95.28-1.9.52-2.82.19-.74.61-1.42.8-2.15.32-1.22.66-2.46.75-3.71.13-1.74.03-3.5.03-5.33,2.25-.66,4.29-1.5,5.8-3.71-1.06.05-1.87.1-2.93.15-.26-2.05-.13-4.38-.06-6.89,1.56.24,2.88.44,4.73.72-.84-.67-1.3-1.05-1.75-1.41.62-1.22,1.44-.33,2.37-.38-1.02-2.64.28-4.97.97-7.38.45-1.57.68-1.57,2.38-1.26.58.1,1.23-.22,1.75-.33.07-.45.15-.63.1-.76-1.22-3.27-1.01-3.97,1.82-6.01,1.56-1.12,3.1-2.17,3.72-4.22.19-.62,1.26-1.18,2.03-1.38,1.22-.32,2.52-.31,3.62-.42.69,2.56,1.33,4.97,1.98,7.38.41,1.54.91,3.07,1.22,4.63.33,1.73-.34,2.37-2.12,2.19-.47-.05-.93-.21-1.41-.29-1.95-.34-2.98.63-3.15,2.69-.07.8-.37,1.78-.92,2.32-1.19,1.16-1.22,2.34-.59,3.69.63,1.36,1.29,2.7,2.14,4.44-1.44-.14-2.56-.24-3.96-.37.29,1.31.54,2.44.81,3.7-.69.11-1.36.21-2.24.35.48.51.88.93,1.41,1.49-.55.21-1.01.38-1.66.63.23.47.46.91.75,1.5-1.02.81-2.06,1.64-3.25,2.59.45.24.76.39,1.02.53-.4,1.19-.98,2.36-1.15,3.57-.32,2.21-.86,4.11-3.88,4.45,2.88,1.89,2.11,4.69,2.74,7.07-.69.42-1.3.8-1.89,1.16.08.8.43,1.7.17,2.36-.29.75-1.12,1.29-1.9,2.12.72.28,1.25.53,1.81.71.53.17,1.08.27,1.71.43,1.11-1.63,2.77-2.26,4.65-2.57,1.49-.25,2.94-.76,4.42-1.08,2.43-.52,3.15-.07,3.86,2.29.23.76.49,1.53.63,2.31.32,1.84.96,3.52,2.02,5.07.48.7.72,1.55,1.01,2.21-.22.35-.27.56-.39.61-1.97.85-2,.86-1.13,2.78.98,2.15.82,4.19-.51,6.13-.72,1.06-1.56,2.04-2.18,3.15-.73,1.3-1.29,2.69-1.95,4.1.79.48,1.31.79,2.01,1.21-1.9,2.63-3.6,5.3-1.53,8.7-1.09.1-1.86.18-2.73.26-.19,2.41-1.04,4.65-.57,7.11.19,1-.14,2.28-.66,3.18-.64,1.11-.92,2.17-.86,3.39.08,1.55-.13,3.01-1.24,4.24-1.02,1.14-.84,2.56-.55,3.89.37,1.68.25,3.14-1.29,4.23.4.3.71.54,1.03.78q-.97,1.07-3.36-.48c.2.85.35,1.52.43,1.88,1.46.7,2.65,1.27,3.99,1.91-4.32,3.15-4.43,3.49-2.53,7.52-.66-.05-1.21-.08-1.83-.13-1.62,3.07-3.44,6.09-4.83,9.29-.94,2.18-2.23,3.4-4.59,3.51-.31.01-.62.14-.92.23-.07.02-.13.09-.31.22.75,2.07-.94,3.55-1.37,5.42-2.35-1.28-2.93-2.51-2.1-4.8.47-1.3.92-2.49.47-3.93-.15-.47.3-1.18.59-1.72.51-.97,1.11-1.91,1.84-3.15-1.34.17-2.33.29-3.44.43.59-1.16.94-2.34,1.68-3.18.75-.86,1.88-1.38,2.88-2.07-.27-.38-.38-.6-.54-.75-2.03-1.88-2.28-2.72-1.31-5.25.74-1.94,1.61-3.82,2.5-5.91.67-.21,1.49-.47,2.57-.82-.81-2.06-1.62-4.1-2.48-6.28.62-.4,1.25-.82,1.87-1.22-2.53-2.02-1.67-4.74-1.3-7.15.39-2.59,1.32-5.11,4.03-6.5-.23-.7-.34-1.34-.64-1.87-.92-1.59-.77-3.16-.28-4.85,1.36-4.75,2.62-9.53,3.92-14.27-1.1-.41-2-.75-3.15-1.19-1.09.63-2.35,2.16-4.11.13-.81,2.39-3.08,4-1.98,6.82-1.65.69-3.56,1.06-4.19,3.26-3.86-1.17-3.79-5.02-5.94-7.89-.53.86-1.03,1.65-1.56,2.5-1.64-2.45-1.63-5.8-.2-8.33.35-.61.82-1.27.84-1.92.04-1.34.37-2.43,1.31-3.45.79-.85.52-1.97.17-2.97-1.06-2.99-.4-5.87.77-8.61.53-1.26,1.67-2.26,2.81-3.74Z"/>
  <path class="cls-1" d="m344.08,562.81c.4-1.28-.69-2.75,1.34-3.36-.39-.48-.72-.89-1.04-1.28.17-.2.24-.37.36-.42,1.78-.71,3.56-1.42,5.35-2.11.44-.17.95-.51,1.35-.42,2.61.55,4.49-1.25,7.02-1.83-.68-.75-1.13-1.25-1.74-1.92,1.88-.93,3.65-1.81,5.42-2.69.1.09.21.17.31.26-.7.85-1.39,1.7-2.08,2.53.97.47,1.87.89,2.87,1.37-.24.82-.43,1.46-.61,2.11.18.05.41.17.46.11,1.42-1.43,1.41-1.43.22-3.42-.08-.14-.14-.29-.3-.63.72-.35,1.45-.71,2.2-1.08,1.73,2.58-.02,4.34-1.25,6.37,1.4.29,2.62.54,4.06.83-.97.99-2.16,1.71-2.57,2.74-.42,1.08-.09,2.45-.09,3.82-.92.1-2.09.23-3.28.36-.36,1.98-.7,3.85-1.06,5.85-1.08.01-1.73.39-2.35,1.29-.73,1.06-1.94,1.84-3.04,2.59-.92.62-1.99,1-3.08,1.54.04.43.04.81.1,1.18.34,2.03-.47,3.65-2.32,4.23-2.74.86-4.32,2.51-5.34,5.16-.74,1.94-2.1,2.12-3.9.98-.99-.63-1.89-1.4-3.01-2.24-.14.94-.25,1.62-.34,2.31-.22,1.67-.84,2.98-2.48,3.83-.88.45-1.53,1.37-2.23,2.13-1.34,1.46-2.63,2.95-4.12,4.64.08.43.21,1.2.38,2.21h-5.58c.69,1.22,1.16,2.06,1.65,2.93-.51.73-1.17,1.04-2.04.69-.52-.21-1.03-.45-1.51-.73-1.08-.62-1.89-.58-2.55.66-.4.76-.95,1.54-1.63,2.03-.94.68-2.04,1.23-3.14,1.61-.82.28-1.98-.28-2.31,1.1-.03.13-.57.24-.84.19-1.69-.28-2.91.58-4.08,1.6-.48.42-.95.85-1.45,1.26-1.17.97-2.42,1.48-3.99.97-.53-.17-1.43-.19-1.75.13-1.38,1.4-2.82,1.24-4.4.53-.35-.16-.74-.21-1.39-.4.59,1.58,2.21,1.8,2.96,3.29-.55.2-1.05.45-1.58.57-1.46.34-2.99.48-4.38.99-1.73.63-3.34,1.54-5.27,1.34-.22-.02-.63.01-.67.12-.61,1.76-2.16,1.17-3.39,1.39-1.36.25-2.45-.31-3.5-1.04-.04-.03-.15.03-.33.07-.72,1.01.59,1.64.59,2.66h-2.56v-2.65c-1.84.85-.65,2.83-1.84,3.77-.28-.58-.56-1.13-.9-1.82-2.76,1.28-3.9-1.69-5.95-2.39-1.88,2.76-4.14,3.06-6.32.75-1.59.45-3.27.93-5.15,1.46,0-.38-.04-.65,0-.9.06-.3.18-.6.2-.66-1.08-.46-2.08-.89-3.21-1.37-.04.03-.32.25-.74.57-1.45-3.89.68-7.38.25-11.41,1.43.82,2.51,1.43,3.81,2.18-.05-.63-.08-1.09-.13-1.72h8.44c.03-.6.06-1.04.09-1.69,1.36-.18,2.75-.38,4.15-.56,2.11-.26,4-.97,5.66-2.36.6-.51,1.54-.62,2.52-.98.28-1.29,1.29-1.86,2.77-2.17,3.64-.75,6.94-2.35,10.03-4.41.67-.45,1.29-1.36,2.29-.54.09.07.33.05.44-.03,1.8-1.28,3.74-2.43,5.33-3.95.76-.73,1.35-1.21,2.37-1.2,1.67.02,3.21.07,4.37-1.72.5-.78,2.11-.96,3.26-1.17,2.04-.39,3.7-1.1,3.99-3.64.69.3,1.23.54,1.95.85-.08-.88-.14-1.62-.22-2.47,2.04-.53,3.91-1.56,6.15-.7.29-.87.54-1.59.8-2.37.71-.3,1.5-.53,2.15-.95.85-.55,1.65-1.21,2.37-1.94.89-.9,1.62-1.94,2.49-2.86.94-.99,1.96-1.67,3.5-1.67.95,0,1.94-.66,2.84-1.15,1.89-1.04,3.72-2.18,5.58-3.27,1.44-.84,2.02-2.21,2.26-3.76.17-1.09.28-2.2.49-3.86.76,1.58,1.29,2.67,1.81,3.76Z"/>
  <path class="cls-1" d="m60.61,228.56v5.15c-.51.45-1.27,1.12-2.2,1.93.91.67,1.72,1.27,2.67,1.98-.26.68-.52,1.4-.84,2.24,1.59.47,1.8,1.66,1.69,3.16-.12,1.67.07,3.35.03,5.03-.09,3.74-1.27,5.5-4.64,7.08.65.85,1.6,1.61,1.88,2.57.29,1-.04,2.18-.13,3.28-.42,5.07-1.87,9.86-3.94,14.5-.4.89-.61,2.04-.44,2.98.29,1.54-.34,3.3.88,4.32-.64,1.2-1.15,2.2-1.7,3.18-.43.77-.93,1.49-1.35,2.26-.29.54-.61,1.12-.71,1.72-.42,2.53-1.76,3.56-4.27,3.18-.38-.06-.77-.13-1.32-.22-.03.61-.05,1.11-.08,1.73,2.22-.31,4.24-.6,6.26-.88,1.08,1.65.97,3.26,0,4.61-1.78,2.46-2.85,5.11-3.18,8.13-.08.73-.09,2.01-1.95,1.32,1.17,2.17,2.11,3.9,3.09,5.73-.99.68-1.89,1.29-2.78,1.9.35,1.7.83,3.32.98,4.96.22,2.42-.63,2.99-3.01,2.27-.67-.2-1.35-.64-1.97.07-.62.71-.02,1.3.17,1.97.24.82.31,1.7.34,2.55.05,1.39.3,2.65,1.3,3.75.41.45.5,1.27.55,1.93.13,1.89.22,3.8.22,5.69,0,.66-.19,1.4-.52,1.96-.74,1.26-1.47,2.47-1.12,4.03.07.33-.07.85-.3,1.07-.69.62-.51,1.26-.23,1.96.5,1.25.14,2.35-.64,3.36-.34.44-.69.88-1.04,1.31-2.15,2.63-2.63,5.6-1.7,8.79.47,1.61,1.17,3.14,1.69,4.74.83,2.51-.14,3.46-3.11,2.81.69-.63,1.27-1.17,1.93-1.77-2.17.07-2.75.54-2.41,2.28.32,1.64.87,3.23,1.42,4.81.47,1.35.62,2.61-.25,3.86-.36.52-.78,1.13-.8,1.72-.04,1.26-.91,1.7-1.8,2.13.16.42.28.74.47,1.24-1.56-.13-2.79-.28-4.02.76-.98.83-2.08-.09-2.92-.9-2.3-2.24-2.94-4.98-2.46-8.18.4.11.8.22,1.33.36-2.03-2.83-2.02-2.83-1.07-6.56.43-1.72.75-3.38-.47-5.04-.38-.52-.09-1.66.12-2.46.22-.84.87-1.57,1.04-2.4.23-1.14.48-2.43.16-3.48-.53-1.73-.65-3.43-.57-5.2.08-1.83.28-3.62-1.3-5.12-.79-.75-.34-1.87.35-2.6,1.04-1.1,2.19-2.09,3.32-3.1.46-.41.99-.76,1.2-1.5-.5.14-.99.28-1.52.42-1.6-2.6-1.47-5.18-.23-7.93.38.25.7.46,1.35.89v-21.26c1.04.84,1.67,1.34,2.31,1.86,1.08-.85,1.23-2.03,1.1-3.25-.12-1.18-.38-2.35-.6-3.68.56-.04.99-.06,1.65-.11-.49-.78-.93-1.47-1.42-2.25.68-1.12,1.38-2.26,2.09-3.43-.35-.49-.67-.93-1.03-1.43.48-.76.93-1.51,1.43-2.22.48-.68.74-1.29.43-2.19-1.13-3.27-.76-6.63-.4-9.97.26-2.33.56-4.66.93-6.98.06-.36.6-.63,1.06-1.08-.33-.4-.67-.8-1-1.21-1.13-1.43-1.42-3.01-.74-4.72.39-.96.8-1.92,1.22-2.86.79-1.77,1.4-3.55,1.12-5.56-.06-.45.37-.98.77-1.96-.48-.9-.42-2.27.64-3.63.37-.47.28-1.37.27-2.06-.05-4.29,1.03-8.36,2.26-12.57.62.22,1.11.39,1.67.58,1.2-.84,1.37-2.09,1.21-3.38-.18-1.5-.54-2.98-.77-4.48-.36-2.35.63-3.32,2.97-2.97.69.11,1.37.26,2.16.4.34-1.05.62-1.94.99-3.08h-3.04c-.06-.14-.12-.28-.17-.41.61-.55,1.22-1.1,1.97-1.77,1.56,1.32,3.8,1.17,4.93,3.08.15.26.88.23,1.35.25,1.01.03,2.03.01,3.2.01Z"/>
</svg>